<?xml version="1.0" encoding="UTF-8"?>
<svg id="_レイヤー_2" data-name="レイヤー 2" xmlns="http://www.w3.org/2000/svg" viewBox="0 0 177.25 91.72">
  <defs>
    <style>
      .cls-1 {
        fill: none;
        stroke: gray;
        stroke-miterlimit: 10;
      }
    </style>
  </defs>
  <g id="top">
    <g>
      <path class="cls-1" d="m143.6.53c-.22.1-.57-.1-.78,0s-.36.35-.58.45-.41.24-.63.34-.47.11-.69.21-.46.14-.68.24-.43.19-.66.29-.4.27-.62.36-.51.02-.73.11-.34.41-.56.51-.53-.03-.75.06-.32.48-.54.57-.52,0-.74.09-.38.34-.6.43-.48.08-.71.17-.47.11-.69.21-.48.08-.71.17-.42.23-.65.32-.38.33-.6.42-.53-.03-.75.06-.37.37-.59.46-.43.22-.65.3-.43.21-.65.29-.45.16-.67.24-.46.12-.69.21-.5.03-.72.12-.35.41-.58.5-.49.04-.72.13-.47.1-.7.19-.47.11-.69.19-.39.32-.62.4-.49.04-.72.12-.46.12-.69.21-.41.27-.64.35-.43.22-.66.3-.53-.05-.75.03-.38.36-.61.44-.5.02-.73.1-.41.28-.64.36-.48.07-.71.15-.48.09-.71.16-.41.27-.64.35-.49.05-.72.13-.39.35-.62.43-.46.15-.69.22-.52-.04-.75.04-.45.16-.68.24-.4.34-.62.41-.48.08-.7.16-.48.07-.71.14-.45.16-.68.24-.39.35-.62.42-.53-.08-.76,0-.38.38-.61.46-.55-.14-.78-.07-.39.35-.63.42-.45.16-.68.23-.53-.11-.77-.04-.41.3-.64.37-.49.04-.72.1-.38.4-.62.47-.53-.09-.76-.03-.44.2-.68.27-.46.14-.69.2-.49.04-.72.1-.4.37-.63.43-.5,0-.73.06-.44.21-.68.27-.44.21-.68.27-.47.11-.71.17-.54-.16-.78-.1-.44.22-.67.28-.49.02-.73.09-.43.26-.66.33-.46.16-.69.22-.44.22-.68.28-.5.01-.73.07-.46.18-.69.25-.49.08-.72.14c-.23.06-.49.03-.72.09s-.48.06-.71.12-.47.09-.71.14-.41.36-.64.41-.49,0-.73.06-.45.17-.69.23-.46.13-.7.19-.48.06-.71.12-.51-.07-.75-.02-.43.3-.66.35-.46.16-.69.21-.49.03-.72.08-.49,0-.73.05-.45.2-.68.26-.48.07-.71.12-.43.3-.66.35-.51-.09-.75-.04-.47.09-.71.14-.45.18-.69.23-.45.19-.69.24-.54-.22-.77-.17-.41.42-.64.47-.48.06-.71.11-.53-.19-.76-.15-.43.29-.67.34-.49,0-.73.04-.43.33-.66.37-.51-.11-.75-.06-.49,0-.72.05-.48.06-.71.1-.47.1-.71.15-.42.38-.66.43-.53-.25-.77-.2-.42.4-.65.44-.53-.23-.77-.19-.44.31-.67.35-.48.03-.72.07-.49-.03-.73,0-.44.3-.67.34-.49-.02-.73.02-.47.11-.71.15-.47.09-.71.13-.51-.11-.75-.07-.47.14-.71.17-.46.19-.7.22-.48.05-.72.09-.46.18-.7.22-.48.05-.72.08-.51-.11-.74-.08-.48.05-.72.09-.48.03-.72.06-.47.1-.71.14-.47.11-.71.14-.46.22-.7.25-.51-.14-.74-.1-.45.27-.69.3-.47.12-.71.16-.49-.05-.73-.02-.49-.01-.73.02-.48.02-.72.05-.49-.04-.73-.01-.46.21-.7.24-.47.1-.71.13-.48.06-.72.09-.48.04-.72.06-.46.21-.7.24-.49-.07-.73-.04-.5-.15-.74-.12-.47.14-.71.17-.45.29-.69.31-.49-.02-.73,0-.49-.09-.73-.07-.48.06-.72.08-.46.23-.7.26-.51-.21-.75-.19-.46.26-.7.28-.47.12-.71.14-.49-.07-.73-.05-.48.07-.72.09-.48.04-.72.06-.49-.1-.73-.08-.47.13-.71.15-.47.19-.7.21-.5-.19-.74-.17-.47.18-.7.2-.49-.05-.73-.02-.47.13-.71.15-.48.02-.72.05-.46.22-.7.24-.49-.03-.72-.01-.47.12-.71.14-.51-.28-.74-.26-.46.26-.7.28-.49-.15-.73-.13-.47.18-.7.2-.49-.06-.72-.04-.48-.02-.72,0-.47.13-.71.15-.48-.03-.72,0-.48.03-.72.05-.48,0-.72.02-.47.18-.7.2-.49-.06-.72-.04-.46.28-.69.3-.49-.11-.72-.09-.47.19-.7.21-.49-.15-.73-.13-.47.14-.7.16-.48-.03-.72-.01-.48-.02-.72,0-.46.25-.69.27-.48-.03-.72-.01-.47.07-.71.1-.48,0-.71.03-.5-.13-.73-.1-.46.24-.69.26-.48,0-.72.03-.46.17-.69.2c-.24.03-.47.08-.7.11-.24.03-.52-.21-.75-.18-.24.04-.43.38-.66.41-.25.04-.5-.02-.72.02-.25.05-.52-.1-.74-.04-.25.06-.39.44-.6.51-.25.08-.46.14-.66.22-.26.11-.55.04-.7.17-.23.18-.45.4-.45.61,0,.21.33.32.53.53.14.15.32.26.55.41.19.11.32.36.56.47.2.1.39.29.62.38.21.08.51-.04.75.05.22.08.41.27.64.35.22.07.5-.03.74.04.23.07.41.3.65.36s.43.24.67.3.47.1.71.16.51-.08.75-.02.46.13.7.18.47.12.7.17.43.28.66.33.48.06.72.11.48.02.72.07.46.15.7.2.49.01.73.06.49,0,.73.05.46.19.69.23.46.16.7.2.49-.03.73,0,.47.1.71.14.5-.04.74,0,.46.21.7.25.5-.08.74-.04.44.3.68.34.51-.14.75-.1.48.11.72.15.48.07.72.1.45.31.69.35.48.09.72.12.5-.02.73.02.51-.15.75-.11.48.09.72.13.45.31.69.34.49.05.73.08.5-.02.74,0,.48.07.72.11.49.01.72.04.46.25.69.28.51-.11.74-.08.49.04.72.07c.24.03.45.28.68.31s.5-.14.74-.11.45.26.69.29.51-.16.75-.13.48.01.72.04.47.09.71.12.48.04.72.06.48.02.72.05.46.26.69.28.5-.1.73-.07.46.22.7.25.47.1.71.13.5-.14.74-.12.48.08.71.1.49-.06.73-.03.45.35.69.37.48.06.72.08.5-.17.74-.15.48.07.71.09.49-.09.73-.07.47.18.71.2.47.13.71.14.5-.2.73-.19.46.28.7.29.49-.13.73-.11.46.26.7.28.49-.11.73-.09.48-.03.72-.02.47.21.71.22.49-.14.73-.13.48.03.72.05.47.19.71.2.48-.11.72-.1.47.15.71.16.49-.25.73-.24.48.06.71.07.47.23.71.24.48-.08.72-.07.49-.18.72-.17.48.16.71.17.48.03.72.03.48-.07.72-.06.48.02.72.02.48.17.71.17.48.03.71.03.48-.03.71-.03.48-.11.71-.11.48.1.71.1.48-.16.71-.16.48-.06.72-.06.48.1.71.1.48-.08.71-.08.48.27.71.27.47-.05.71-.05.48-.04.71-.04.47-.01.71-.02.48.02.71.01.48.01.71,0c.23-.05.44-.28.68-.33s.48-.04.71-.09.45-.17.69-.22.51.09.74.04.45-.2.68-.25.48-.04.71-.1.44-.23.67-.28.48-.06.71-.11.51.07.74.02.41-.32.65-.38.47-.09.7-.14.51.07.74.01.42-.3.65-.36.45-.18.68-.24.51.06.74,0,.44-.22.67-.28.45-.17.68-.23.46-.11.7-.17.49,0,.72-.07.5,0,.73-.05.43-.25.66-.32.43-.22.67-.29.46-.13.69-.2.45-.16.68-.22.53.1.76.03.47-.11.7-.18.44-.18.68-.25.39-.35.62-.42.5,0,.73-.08.48-.05.71-.13.43-.24.66-.31.5-.02.73-.09.45-.17.68-.25.44-.19.67-.27.46-.14.69-.21.4-.31.63-.38.43-.23.66-.31.53.09.76.01.38-.37.6-.45.52.04.75-.04.4-.3.63-.38.43-.21.66-.29.5-.02.73-.11.39-.32.62-.4.48-.09.7-.17.47-.11.7-.19.44-.19.67-.28.43-.22.66-.3.53.04.75-.05.39-.32.62-.41.48-.1.7-.19.42-.26.64-.35.43-.21.66-.3.41-.27.64-.36.53.02.75-.07.42-.24.64-.33.37-.35.6-.45.46-.15.68-.25.49-.08.71-.18.45-.17.67-.27.46-.16.68-.26.36-.38.58-.48.43-.21.65-.31.5-.07.72-.17.4-.28.62-.38.51-.04.73-.14.42-.26.64-.36.43-.21.65-.31.38-.33.6-.43.51-.05.73-.16.37-.36.59-.47c.22-.1.45-.16.67-.26s.54,0,.75-.1.43-.21.65-.31.43-.21.64-.32.33-.4.55-.51.46-.14.68-.25.47-.13.68-.24.33-.41.54-.52.48-.11.69-.22.46-.16.67-.27.31-.43.52-.54.56.04.77-.08.39-.29.6-.4.41-.25.62-.36.33-.39.54-.51.39-.29.6-.4.48-.13.68-.25.42-.23.63-.35.44-.19.65-.31.44-.2.64-.32.4-.26.61-.38.33-.38.54-.5.42-.23.62-.35.49-.11.69-.23.33-.38.53-.5.55-.02.75-.14.26-.49.46-.62.56,0,.76-.13.41-.25.61-.37.36-.32.56-.45.29-.43.5-.56.42-.23.62-.35.39-.27.59-.4.45-.18.65-.31.38-.3.58-.42.44-.19.64-.32.49-.13.68-.26.4-.27.6-.4.29-.43.49-.56.42-.23.62-.37.38-.29.58-.42.48-.14.68-.27.26-.46.46-.6.47-.15.67-.29.39-.27.59-.4.46-.18.65-.31.33-.36.52-.49.4-.26.59-.4.35-.32.54-.46.34-.35.53-.49.38-.28.57-.42.42-.23.62-.37.3-.39.49-.53.44-.21.63-.35.43-.21.62-.35.37-.3.55-.44.36-.32.54-.46.38-.29.56-.43.3-.38.48-.53.54-.07.73-.22.3-.47.48-.61c.09.22.29.46.39.69.09.22.17.45.26.68s.14.46.24.69-.04.53.05.76.24.42.32.66.14.46.23.69.27.41.35.64.31.4.39.63.11.47.19.71-.08.54,0,.77.35.39.43.63.16.46.24.69,0,.51.06.74.1.47.17.71.39.39.46.63-.01.51.05.75.21.44.28.68.18.46.25.69.15.46.21.7,0,.51.06.75c.06.24.02.49.08.72s.06.48.11.71.21.45.26.68,0,.49.04.73.08.47.13.71.12.47.16.7.31.43.35.67.04.48.08.72-.12.51-.08.74.32.44.36.67-.15.51-.12.74.23.45.26.69-.13.5-.1.74.18.46.21.7.14.47.16.7-.18.5-.16.74.05.48.07.72.06.48.08.72.02.48.03.72.28.46.29.7-.15.49-.14.73.15.47.16.71.12.48.13.71-.15.48-.14.72-.13.48-.12.72.06.48.06.71.06.48.06.71.08.48.08.72-.01.48-.01.72.05.48.05.72-.06.48-.06.72.14.48.14.72-.11.48-.12.71.1.48.09.72-.32.47-.33.71.03.48.02.72.08.48.08.72.18.48.17.72-.26.47-.27.71.15.48.14.72-.26.47-.27.7.3.48.3.72-.15.47-.15.71-.16.47-.16.71.04.47.04.71,0,.47,0,.71.24.47.24.71.04.47.04.71-.19.48-.19.71-.12.48-.11.71.32.46.32.7-.28.49-.27.72.03.48.04.71.21.46.22.7.17.47.18.71c.02.24.02.48.05.72s-.16.49-.14.73.25.45.28.69-.23.51-.2.75.27.45.3.69.02.47.06.71-.08.49-.05.73.19.45.23.69.17.45.21.69-.15.51-.1.74.3.43.35.66.05.47.1.71.15.45.2.69,0,.49.06.72.15.45.2.69.07.47.12.71.08.47.14.71.19.44.25.68.21.44.28.67.05.48.12.71-.11.53-.04.76.23.43.3.66.27.42.34.65.07.48.15.71.16.45.24.68,0,.51.09.73.2.44.28.67.2.44.28.67.18.45.26.67.29.4.38.62.13.46.22.69.23.42.32.65.2.43.29.66.05.5.14.72.13.47.23.69.25.42.34.64.14.47.24.69.18.45.28.67.26.41.36.63.41.34.52.55-.03.55.08.76.43.32.54.54.06.51.17.73.26.41.37.63.15.47.26.68.29.39.41.61.27.4.39.61.28.4.4.61.14.48.26.69.45.3.58.51.12.52.24.73c-.2-.12-.36-.36-.56-.48s-.47-.14-.67-.26-.35-.34-.56-.46-.49-.1-.7-.22-.41-.25-.61-.37-.4-.26-.6-.38-.47-.13-.68-.25-.3-.44-.5-.56-.53-.04-.73-.16-.39-.27-.6-.39-.31-.42-.52-.53-.4-.26-.61-.38-.55,0-.76-.11-.41-.24-.62-.36-.33-.39-.54-.5-.37-.31-.58-.42-.45-.16-.66-.28-.46-.15-.67-.27-.4-.26-.61-.37-.43-.22-.64-.33-.35-.35-.56-.47-.56.03-.77-.09-.36-.34-.57-.45-.4-.26-.61-.37-.45-.18-.66-.29-.44-.19-.65-.3-.34-.38-.55-.49-.46-.15-.67-.26-.37-.33-.58-.44-.52-.04-.73-.15-.44-.18-.66-.29-.42-.24-.63-.35-.37-.33-.58-.44-.4-.27-.61-.38-.45-.18-.66-.29-.51-.06-.72-.17-.37-.33-.58-.44-.41-.24-.63-.35-.37-.32-.59-.43-.51-.05-.72-.15-.47-.13-.68-.24-.38-.31-.59-.41-.4-.26-.62-.37-.37-.34-.58-.44-.48-.11-.7-.21-.46-.16-.67-.26-.36-.36-.57-.47-.54,0-.75-.1-.34-.4-.56-.5-.54.02-.76-.09-.36-.37-.57-.47-.54.01-.75-.09-.43-.21-.65-.31-.41-.25-.63-.35-.44-.2-.65-.3-.33-.44-.54-.54-.47-.12-.69-.22-.43-.22-.65-.32-.47-.13-.68-.23-.37-.35-.59-.44-.43-.22-.65-.32-.55.06-.77-.04-.4-.27-.62-.37-.42-.24-.64-.34-.5-.06-.72-.16-.34-.42-.56-.52-.47-.12-.69-.22-.47-.13-.69-.23-.43-.22-.65-.32-.38-.33-.6-.43-.47-.11-.7-.21-.48-.1-.7-.2-.39-.3-.62-.4-.55.06-.77-.03-.34-.43-.56-.53-.46-.14-.69-.24-.4-.29-.63-.38-.52,0-.75-.1-.42-.25-.65-.34c-.22-.09-.49-.08-.71-.17s-.39-.32-.61-.41-.49-.06-.71-.15-.48-.1-.7-.19-.44-.2-.66-.29-.37-.36-.59-.45-.52.01-.74-.08-.37-.36-.59-.45-.49-.06-.71-.15-.39-.32-.61-.4-.47-.1-.7-.19-.43-.2-.66-.29-.51-.02-.73-.1-.36-.39-.59-.47-.44-.2-.66-.28-.54.07-.76-.01-.35-.43-.58-.51-.48-.1-.7-.18-.52.01-.74-.07-.39-.34-.61-.42-.52.02-.74-.06-.44-.19-.66-.28-.42-.24-.65-.33-.41-.28-.63-.36-.51,0-.74-.07-.38-.37-.6-.45-.55.12-.78.04-.34-.47-.57-.55-.47-.1-.7-.18-.53.07-.76-.01-.38-.37-.6-.44-.5,0-.73-.08-.42-.26-.64-.34-.52.03-.74-.04-.43-.23-.65-.31-.4-.3-.63-.37-.46-.14-.68-.22-.51,0-.73-.07-.41-.29-.64-.36-.51,0-.73-.07-.38-.37-.61-.44-.46-.12-.69-.2-.49-.03-.72-.1-.45-.16-.68-.23-.44-.19-.67-.26-.46-.11-.69-.19-.44-.19-.67-.26-.46-.12-.69-.19-.48-.07-.71-.14-.38-.37-.61-.44-.54.14-.77.07-.38-.4-.6-.47-.46-.12-.69-.19-.51.06-.74-.01-.43-.21-.66-.27-.49,0-.72-.07-.41-.26-.64-.33-.45-.18-.68-.24c-.08.22-.18.46-.26.68s-.27.41-.36.63.07.54-.01.76-.18.44-.26.67-.41.36-.5.58-.03.5-.11.72-.09.48-.17.7-.16.45-.24.67-.21.43-.3.65-.23.42-.32.65.02.52-.06.74-.34.38-.42.61-.22.43-.31.65,0,.51-.08.73-.25.41-.34.64-.28.4-.37.63-.13.46-.22.68.05.53-.03.75-.19.44-.27.66-.4.36-.48.58-.19.44-.27.66.03.52-.05.75-.32.39-.41.61-.25.42-.33.64.09.54,0,.77-.26.41-.34.64-.03.5-.12.72-.25.42-.33.64-.39.37-.47.59.1.55.02.77-.4.36-.49.58-.02.5-.1.73-.28.4-.37.63-.08.48-.17.7-.11.47-.19.69-.14.46-.22.68-.43.35-.51.57,0,.51-.09.73-.24.42-.32.64-.02.5-.1.73-.19.44-.28.66-.13.46-.22.68-.31.39-.39.62-.25.41-.34.64.05.53-.03.75-.21.43-.3.65-.35.38-.43.6-.16.45-.24.67.04.52-.04.75-.12.46-.2.69-.42.35-.51.57-.18.44-.27.66.11.55.03.77-.45.34-.53.57-.08.62-.16.84c.18-.16.39-.47.57-.63s.5-.16.67-.32.33-.35.51-.51.15-.54.33-.7.56-.09.74-.25.26-.43.43-.59.32-.36.49-.52.45-.21.62-.37.28-.4.46-.56.43-.23.61-.39.38-.29.55-.45.28-.4.46-.56.24-.45.41-.61.45-.22.62-.38.26-.42.44-.58.47-.19.64-.35.29-.39.46-.55.44-.22.61-.39.23-.46.4-.62.51-.14.69-.31.27-.41.44-.57.39-.27.57-.43.19-.5.37-.66.41-.25.59-.41.39-.28.56-.44.49-.17.66-.33.25-.43.43-.59.43-.24.6-.4.38-.29.55-.45.2-.49.37-.65.28-.4.46-.56.5-.15.68-.31.24-.44.42-.6.36-.31.53-.47.51-.14.69-.3.15-.55.32-.71.53-.13.7-.29.25-.43.43-.59.48-.18.65-.34.35-.33.52-.49.24-.44.41-.61.3-.38.47-.54.46-.21.63-.37.3-.37.48-.53.49-.17.66-.33.31-.37.48-.53.2-.49.37-.65.36-.31.54-.47"/>
      <path class="cls-1" d="m65.19,85.67c.03-.23.08-.47.11-.7s.06-.47.09-.7.03-.47.06-.71.04-.47.07-.71.04-.47.07-.7.09-.46.12-.7.05-.47.08-.7.03-.47.06-.71.07-.47.1-.7.06-.47.08-.7.09-.47.12-.7-.02-.48,0-.71.1-.46.13-.7.06-.47.08-.71.05-.47.07-.71-.02-.48,0-.71.07-.47.09-.71.09-.47.11-.7-.02-.48,0-.71.05-.47.07-.71.04-.47.05-.71.08-.47.09-.7,0-.47.02-.71.06-.47.08-.71-.02-.48,0-.71.03-.47.05-.71.05-.47.07-.71.07-.47.09-.71.03-.47.05-.71,0-.48.01-.72.04-.47.06-.71-.01-.48,0-.71,0-.48.02-.71.04-.48.06-.71.06-.48.07-.71-.04-.48-.03-.72.02-.48.02-.72.05-.48.05-.72.05-.48.06-.72c0-.25-.04-.49-.03-.74s.07-.49.08-.73.01-.49.02-.74,0-.49.01-.74-.04-.49-.04-.74.03-.49.04-.74.02-.49.02-.74-.04-.49-.04-.74-.01-.49,0-.74.04-.49.04-.74.01-.49.01-.73-.06-.49-.06-.73.03-.49.03-.73.02-.49.02-.73-.06-.49-.06-.73.02-.49.01-.73.05-.49.04-.73-.06-.49-.07-.73-.02-.49-.03-.73.02-.49.02-.73-.05-.48-.06-.72.03-.48.02-.72"/>
    </g>
  </g>
</svg>