<?xml version="1.0" encoding="utf-8"?>
<!-- Generator: Adobe Illustrator 27.9.5, SVG Export Plug-In . SVG Version: 9.03 Build 54986)  -->
<svg version="1.1" id="_レイヤー_2" xmlns="http://www.w3.org/2000/svg" xmlns:xlink="http://www.w3.org/1999/xlink" x="0px"
	 y="0px" viewBox="0 0 294.3 300.5" style="enable-background:new 0 0 294.3 300.5;" xml:space="preserve">
<style type="text/css">
	.st0{opacity:0.2;fill-rule:evenodd;clip-rule:evenodd;fill:#C1D4C4;enable-background:new    ;}
</style>
<g id="top">
	<path class="st0" d="M198,2.6c17.9,5,32.6,17.1,45.1,30.6c32.1,34.5,52.6,80.5,51.1,127.8s-26.6,94.9-68.1,119.1
		c-23.9,13.9-51.8,19.9-79.3,20.3c-25.8,0.4-52.5-4.2-73-19.2c-13.2-9.7-23-23-32.3-36.4c-13.9-20.1-27.1-40.9-34.8-64.1
		c-7.8-23.1-9.7-49-1.1-72.1c13.3-35.7,48.5-59.7,82-75.3C121.7,17.5,159-8.3,198,2.6z"/>
</g>
</svg>
