<?xml version="1.0" encoding="UTF-8"?>
<svg id="_レイヤー_2" data-name="レイヤー 2" xmlns="http://www.w3.org/2000/svg" viewBox="0 0 41.64 40.92">
  <defs>
    <style>
      .cls-1 {
        fill: none;
        stroke: gray;
        stroke-linecap: round;
        stroke-linejoin: round;
      }
    </style>
  </defs>
  <g id="top">
    <g>
      <path class="cls-1" d="m27.24,11.42c.06.01.08-.23.18-.66.05-.21.16-.44.23-.71.06-.22.09-.47.17-.72.07-.23.14-.47.24-.7s.2-.45.32-.67.24-.44.38-.64.31-.39.48-.57.4-.3.6-.45c.19-.14.36-.31.57-.43s.42-.22.65-.3.46-.1.7-.15.46-.11.7-.14.47-.04.71-.05.47-.03.71-.02.48-.01.72.02.46.14.69.2.45.14.68.21.46.13.68.23.41.24.62.36.41.23.6.38.39.27.57.44.35.32.51.51c.15.18.27.38.4.57s.26.38.37.58.21.41.3.62.14.44.21.66.12.45.16.67.05.46.07.69.09.46.09.69-.07.46-.09.69-.01.46-.06.69-.15.44-.21.66c-.07.24-.12.48-.21.7-.1.23-.23.43-.35.64s-.27.4-.42.59-.25.43-.41.61-.35.35-.53.51-.42.26-.61.4c-.2.15-.38.31-.58.44-.22.13-.44.23-.65.34-.23.12-.46.21-.66.29-.25.1-.47.2-.67.26-.34.11-.58.22-.68.25-.22.05-.46.03-.67.06-.23.03-.45.06-.66.08-.24.02-.46.02-.67.02-.25,0-.47.02-.66.02-.4-.01-.66-.03-.66,0,0,.03.27,0,.7,0,.2,0,.43.03.7.03.21,0,.45-.03.7-.02.22,0,.46,0,.7.02.23.01.45.1.69.12s.46.04.7.07.47.03.7.07.45.14.68.2.47.08.69.15.43.2.64.29.42.21.62.32.41.23.6.37.39.27.56.43.29.37.43.56c.15.21.32.4.43.63s.16.48.23.72.17.48.2.73.04.5.05.76.02.51,0,.76-.11.5-.16.74-.09.5-.16.74-.11.5-.21.73c-.1.24-.21.47-.33.69-.12.22-.3.39-.44.58s-.33.36-.49.53-.31.38-.5.53-.42.25-.62.38-.4.27-.62.38-.45.17-.68.25-.46.15-.69.21-.46.17-.69.22-.48.1-.72.13-.49-.03-.73-.02-.49.02-.72.02-.49.06-.73.04c-.25-.02-.49-.12-.72-.15-.25-.03-.5-.01-.72-.06-.26-.05-.5-.11-.71-.17-.27-.08-.49-.2-.66-.29-.08-.04-.14-.12-.14-.12-.21-.13-.42-.24-.6-.38-.2-.15-.39-.3-.55-.45-.18-.18-.36-.34-.5-.51-.17-.21-.29-.42-.41-.58-.24-.35-.36-.59-.41-.57-.05.02.04.28.21.65.08.18.23.37.34.61.08.2.18.41.26.64.08.21.1.45.17.67s.19.42.24.65.06.46.09.69c.03.23.01.47.02.71,0,.23.02.47,0,.71s0,.48-.03.72-.14.46-.19.69-.06.48-.13.71-.15.45-.24.68-.24.41-.35.63-.2.43-.33.64-.27.39-.42.58-.27.4-.44.57-.39.27-.58.42-.37.29-.58.41-.41.24-.63.33c-.22.09-.44.21-.66.27s-.47.06-.71.09-.47.03-.71.03-.47-.02-.71-.05-.47-.04-.7-.1-.46-.12-.68-.2-.45-.16-.66-.26-.43-.2-.64-.32-.41-.24-.61-.36-.37-.3-.56-.44-.39-.28-.57-.43-.35-.32-.52-.49-.34-.34-.49-.51-.33-.35-.47-.53c-.15-.2-.29-.39-.41-.58-.13-.21-.26-.42-.37-.63-.12-.22-.24-.44-.33-.65-.1-.24-.14-.49-.21-.71-.08-.25-.15-.48-.21-.7-.07-.27-.12-.51-.15-.71-.07-.44-.09-.71-.09-.71-.01-.29-.02-.56,0-.81.02-.3.08-.57.11-.8.05-.45.06-.7-.05-.74-.1-.03-.19.15-.35.5-.08.18-.2.37-.3.6-.09.19-.18.4-.29.62-.1.2-.22.39-.34.59s-.21.4-.35.58-.26.38-.42.54-.33.32-.52.45c-.19.14-.41.27-.64.38s-.47.15-.71.22-.45.19-.7.24-.49.01-.74.03-.49.1-.74.1-.49-.07-.74-.09-.5,0-.74-.04-.48-.11-.72-.17-.49-.09-.72-.17-.45-.2-.68-.3-.47-.17-.69-.28-.42-.26-.63-.4-.39-.3-.58-.46-.39-.31-.56-.49-.33-.37-.47-.57-.27-.42-.38-.64c-.1-.22-.15-.46-.21-.69s-.16-.45-.19-.69-.02-.48-.02-.72.05-.47.08-.71.02-.48.08-.72.13-.46.2-.69.19-.44.29-.66.15-.46.26-.67.24-.42.36-.62.21-.43.35-.63.28-.39.42-.59.31-.37.46-.55.32-.36.49-.53.34-.34.52-.5.35-.34.53-.49.37-.32.56-.45.42-.24.62-.36.44-.21.65-.31c.22-.11.44-.21.66-.28.17-.06.38-.15.61-.22.21-.07.42-.15.61-.23.29-.12.46-.23.45-.37-.01-.14-.2-.16-.56-.2-.19-.02-.42-.07-.68-.09-.21-.01-.43-.05-.67-.07-.22-.02-.45-.02-.68-.06-.22-.03-.45-.05-.68-.1s-.43-.14-.65-.22-.44-.11-.65-.21-.39-.23-.59-.35c-.2-.13-.38-.3-.57-.46s-.39-.29-.57-.47-.31-.38-.46-.57-.33-.37-.46-.58-.2-.45-.31-.67-.25-.42-.35-.65-.14-.47-.22-.71-.19-.46-.24-.7-.06-.49-.08-.73-.08-.49-.08-.73.04-.49.07-.73.07-.49.13-.72.08-.49.17-.72.21-.45.34-.66c.14-.22.35-.38.51-.56s.34-.37.53-.53.4-.31.61-.44.44-.25.67-.35c.24-.11.48-.19.71-.27.25-.08.49-.18.72-.24.27-.06.53-.06.75-.09.4-.06.67-.06.74-.06.24,0,.47-.08.7-.07s.46.09.69.12.46.08.69.13.46.1.68.18.43.18.65.27.43.18.64.29.41.22.62.33.43.2.63.32.4.25.59.38.38.29.56.42.37.3.55.44c.19.15.36.31.54.45.19.15.39.27.57.42.19.16.37.31.54.46.19.16.36.33.53.47.21.17.43.27.59.37.3.19.51.3.63.19.13-.11.08-.35-.04-.66-.07-.18-.15-.39-.27-.63-.09-.19-.21-.38-.3-.61-.08-.2-.2-.4-.28-.62-.07-.21-.11-.43-.17-.66-.06-.21-.11-.43-.15-.66-.04-.22-.04-.45-.06-.68-.02-.22-.02-.45-.01-.68,0-.24.03-.49.07-.75.03-.24.04-.5.1-.75s.12-.49.2-.73.21-.46.31-.69.17-.48.3-.7.31-.4.47-.59.32-.39.51-.55.38-.34.6-.47c.21-.12.45-.18.68-.26s.46-.13.7-.17.47-.09.72-.1.48.02.72.05.48.06.72.11.47.09.71.17.46.14.69.24.42.24.64.35.45.2.65.33.4.27.6.42.34.35.52.51.36.32.52.5.37.32.52.51.25.42.37.63.22.43.32.65c.1.23.25.43.32.67s.13.48.17.72,0,.5.02.74.05.49.05.74-.04.5-.07.73c-.02.26,0,.51-.05.74-.04.26-.07.51-.12.73-.06.27-.12.52-.17.72-.1.43-.18.65-.12.66Z"/>
      <path class="cls-1" d="m20.74,16.64c-.11.04-.37.15-.69.33-.2.11-.42.24-.64.41-.19.15-.38.32-.56.53-.16.18-.31.4-.43.63-.12.21-.21.45-.28.71-.06.24-.1.48-.12.71s0,.49.02.72.11.47.18.7.18.45.29.66.25.42.4.6.33.36.52.5c.19.16.4.29.62.4s.45.21.69.27.48.12.73.14.49.03.74.02.49-.05.73-.1.48-.12.71-.2.46-.19.68-.31.43-.25.62-.4.38-.32.54-.51.31-.38.44-.6c.11-.19.2-.4.28-.62s.14-.43.18-.66.07-.45.07-.68-.02-.45-.06-.68-.09-.45-.17-.66-.18-.42-.3-.61c-.13-.21-.29-.39-.46-.55s-.36-.32-.56-.45-.42-.23-.65-.31-.45-.15-.69-.2-.47-.09-.71-.1-.49,0-.72.01-.48.07-.71.12c-.24.05-.48.11-.7.19Z"/>
    </g>
  </g>
</svg>