<?xml version="1.0" encoding="UTF-8"?>
<svg id="_レイヤー_2" data-name="レイヤー 2" xmlns="http://www.w3.org/2000/svg" viewBox="0 0 47.54 39.5">
  <defs>
    <style>
      .cls-1 {
        fill: none;
        stroke: gray;
        stroke-linecap: round;
        stroke-linejoin: round;
        stroke-width: 1px;
      }
    </style>
  </defs>
  <g id="top">
    <g>
      <path class="cls-1" d="m24.72,10.71c.14,0,.23-.22.31-.58.04-.18.1-.41.15-.66.04-.2.06-.43.13-.67.05-.21.12-.42.2-.65.07-.21.1-.44.19-.66.08-.2.17-.42.27-.63.11-.23.25-.43.37-.64s.24-.43.38-.63.32-.38.47-.57.31-.38.47-.56.33-.37.5-.54c.18-.18.35-.36.53-.52.19-.17.4-.3.59-.44.21-.16.38-.34.56-.47.22-.15.46-.24.64-.36.25-.15.48-.24.64-.34.2-.11.41-.21.61-.31s.38-.27.58-.36.43-.14.65-.22.42-.15.64-.21.43-.12.66-.15c.22-.03.44-.03.68-.03.23,0,.49-.04.75-.01.24.02.49.05.74.1s.48.13.72.2.47.16.7.26.45.22.66.35.39.32.57.48.37.33.52.53.3.39.41.62c.12.23.25.45.31.69s.07.5.08.75.06.51.04.76-.09.5-.15.74-.1.5-.18.74-.19.47-.29.7-.23.46-.34.68c-.12.23-.21.47-.33.68-.13.24-.27.45-.38.65-.12.21-.28.39-.4.58s-.27.39-.4.57-.26.39-.41.57-.34.33-.49.5-.31.36-.47.52-.33.34-.49.5c-.17.17-.33.34-.5.5-.18.16-.38.29-.56.43-.19.15-.38.29-.56.42-.2.15-.38.3-.56.43-.21.15-.39.29-.57.42-.22.16-.4.31-.55.43-.32.24-.52.41-.46.51.06.1.35.08.76-.06.2-.07.43-.19.7-.29.22-.08.44-.2.71-.28.23-.07.48-.12.73-.2.23-.07.47-.16.72-.22.24-.06.5-.06.75-.11.24-.05.48-.14.74-.18.23-.03.48-.04.73-.07.23-.03.48-.04.73-.07s.48,0,.73-.02.48-.05.73-.06.49-.01.73,0,.49.04.73.07.47.11.71.17.5.04.73.12.43.23.65.34.43.22.64.36.36.31.55.49c.18.17.35.35.51.55s.32.38.46.6.21.45.32.68.22.45.3.69.15.48.2.72.1.49.12.74.03.5.03.75.01.5-.01.75-.08.5-.13.74-.09.5-.17.73-.17.48-.29.7c-.12.23-.31.4-.45.6s-.24.45-.41.63-.36.35-.55.51-.41.28-.62.42-.45.22-.67.33-.44.22-.67.31-.45.21-.69.29-.48.13-.72.19-.48.17-.71.22c-.25.05-.51.04-.74.08-.25.04-.5.09-.73.12-.26.03-.5.13-.73.15-.25.03-.5.03-.74.05s-.5,0-.74.01-.5.06-.74.05-.5,0-.74-.01-.49-.1-.73-.13-.5.02-.74-.01-.49-.12-.73-.16-.51-.02-.74-.06c-.25-.05-.49-.11-.73-.16-.25-.05-.48-.17-.71-.23-.25-.06-.5-.08-.73-.14-.26-.07-.5-.13-.72-.19-.27-.08-.5-.19-.7-.25-.43-.12-.71-.16-.73-.1-.02.07.25.16.66.32.19.08.43.14.68.25.21.09.42.22.65.34.21.1.41.25.63.37s.45.19.66.33.35.35.53.51.38.3.54.49.31.38.44.59.29.4.38.63c.1.25.1.52.15.77.06.26.16.51.17.77.01.27,0,.54-.03.79-.03.27-.11.52-.15.76-.06.28-.09.54-.14.76-.04.16-.1.41-.2.72-.06.21-.17.44-.27.69-.08.22-.21.43-.32.66-.1.22-.18.46-.3.67s-.26.42-.41.62-.29.41-.46.59-.39.31-.58.46-.4.29-.62.4-.44.21-.69.28c-.24.07-.48.07-.71.1s-.48.09-.72.08-.49,0-.73-.06-.46-.15-.69-.23-.44-.21-.65-.31-.45-.2-.65-.32c-.22-.13-.45-.22-.64-.36-.21-.15-.37-.33-.55-.48-.21-.17-.36-.36-.51-.5-.28-.27-.51-.41-.55-.46-.16-.18-.29-.37-.43-.55s-.23-.41-.35-.61-.3-.37-.41-.57-.16-.45-.25-.66-.2-.42-.28-.64c-.08-.23-.19-.44-.26-.65-.07-.23-.1-.47-.16-.69-.06-.24-.14-.47-.18-.68-.05-.26-.02-.5-.05-.7-.07-.42-.13-.61-.16-.61-.04,0,0,.24.09.68.05.21.11.45.16.72.04.23.06.47.08.73.02.24.05.48.05.74,0,.24,0,.49-.04.74s-.07.49-.13.73-.17.46-.27.69c-.09.21-.17.43-.3.65s-.24.4-.39.6-.29.37-.46.55-.3.38-.48.54-.39.28-.58.42-.37.31-.58.43-.45.18-.66.28-.44.19-.66.27-.44.18-.68.24-.47.09-.71.11-.48,0-.72-.01-.47-.02-.71-.06-.45-.13-.68-.21c-.24-.08-.49-.12-.72-.23s-.39-.31-.6-.45-.43-.26-.61-.43-.35-.36-.51-.55-.28-.41-.42-.62-.29-.41-.4-.63-.17-.47-.25-.7-.19-.46-.24-.71-.11-.49-.12-.74c0-.25.06-.49.09-.73s.06-.49.12-.72.12-.48.21-.7.21-.45.32-.66.22-.45.35-.65.32-.38.46-.58.26-.43.41-.62.34-.37.49-.55c.17-.2.33-.39.48-.56.17-.2.29-.42.43-.6.17-.22.35-.4.44-.58.15-.28.21-.53.09-.71-.11-.16-.33-.16-.62-.15-.18,0-.4-.03-.66,0-.19.02-.41.05-.65.08-.2.02-.42.06-.66.07-.16,0-.41.02-.73.02-.21,0-.46.02-.73,0-.23-.01-.47-.06-.72-.08-.23-.02-.47-.05-.72-.09-.23-.04-.48-.04-.73-.09s-.47-.11-.71-.18-.45-.19-.68-.27-.48-.11-.71-.21-.44-.22-.65-.34c-.1-.06-.31-.21-.61-.41-.18-.12-.37-.28-.58-.45-.18-.14-.41-.25-.6-.42-.17-.16-.35-.34-.52-.53s-.3-.39-.45-.59-.28-.4-.4-.62-.21-.44-.3-.67-.2-.45-.25-.7-.06-.48-.08-.74c-.01-.25-.03-.49,0-.72s.08-.48.14-.71.1-.48.2-.7.26-.41.38-.62.25-.41.39-.6.32-.36.48-.53.33-.35.5-.52.34-.34.53-.49.4-.27.59-.41.38-.32.58-.44c.21-.13.43-.23.64-.34.23-.12.45-.21.65-.3.21-.09.44-.15.67-.22s.44-.19.67-.24.48,0,.71-.02.46-.11.7-.12.48,0,.71.01.47.05.7.06.48,0,.71.01c.24.03.48.07.7.1.25.04.48.09.69.13.26.05.49.08.69.13.33.07.56.15.68.18.1.02.39.08.66.11.29.03.54-.03.59-.16.06-.13-.14-.24-.46-.47-.17-.12-.37-.27-.59-.43-.18-.14-.35-.32-.54-.49-.17-.16-.34-.35-.5-.54-.15-.18-.3-.38-.42-.6-.13-.22-.24-.45-.32-.68s-.13-.49-.17-.73-.07-.5-.08-.75-.02-.51,0-.76c.03-.26.09-.51.13-.74.05-.26.15-.5.21-.72.08-.28.14-.53.2-.72.06-.19.13-.4.21-.63.07-.2.18-.4.27-.61.09-.2.15-.42.26-.62.1-.19.27-.35.41-.54s.25-.36.4-.53.3-.32.48-.47c.17-.14.32-.32.51-.44.21-.13.45-.22.67-.32s.44-.24.68-.31.49-.08.74-.13.49-.09.74-.1.5,0,.74.02.5.04.74.08.5.07.73.14.45.21.68.31.48.16.69.3c.2.13.38.3.56.46s.32.35.48.53.34.34.47.54.23.42.34.63.23.42.32.64.2.44.28.66.13.46.2.69.14.46.2.69.1.48.14.71c.05.24.11.47.15.7.04.25.08.49.12.71.04.25.07.49.11.71.04.27.06.51.1.71.09.37.19.59.34.59Z"/>
      <path class="cls-1" d="m20.9,18.35c.18-.14.38-.25.59-.34s.42-.17.65-.21.45-.07.68-.07.45.03.68.07.44.11.65.2.4.21.59.34c.03.02.27.2.54.51.14.17.29.38.42.61.11.21.21.44.27.69.05.23.08.48.05.74-.03.24-.09.48-.19.7s-.24.42-.39.61-.32.36-.52.51-.39.28-.61.39-.45.19-.68.26-.47.1-.72.12-.49,0-.72-.04c-.24-.04-.5-.11-.74-.22s-.45-.24-.66-.4-.4-.32-.56-.52-.3-.42-.4-.66-.17-.48-.19-.74c-.02-.26,0-.51.05-.74.06-.26.15-.49.26-.7.13-.24.28-.44.43-.61.25-.29.49-.46.54-.5Z"/>
    </g>
  </g>
</svg>