<?xml version="1.0" encoding="UTF-8"?>
<svg id="_レイヤー_2" data-name="レイヤー 2" xmlns="http://www.w3.org/2000/svg" viewBox="0 0 48.31 47.68">
  <defs>
    <style>
      .cls-1 {
        fill: none;
        stroke: gray;
        stroke-linecap: round;
        stroke-linejoin: round;
      }
    </style>
  </defs>
  <g id="top">
    <g>
      <path class="cls-1" d="m27.32,12.25c.16.07.35-.11.6-.38.13-.15.31-.33.48-.55.13-.18.24-.4.39-.61.14-.18.31-.36.46-.56.14-.18.34-.34.51-.53.15-.18.3-.38.47-.56.16-.17.3-.39.48-.56s.39-.29.58-.45.34-.35.54-.51.4-.28.61-.42c.07-.05.28-.19.61-.39.18-.1.41-.18.66-.31.2-.1.39-.26.62-.37.21-.1.46-.13.69-.23.22-.09.41-.25.65-.34s.47-.11.7-.18.45-.18.69-.24.48-.1.72-.14.49-.03.73-.05.48-.03.72-.03.48.02.72.05.49,0,.73.05.45.18.68.26.47.13.69.24.41.25.61.4c.19.14.38.28.56.44s.31.36.47.54.29.37.42.57.27.39.38.6.25.41.34.63.13.46.2.68.18.44.23.68.01.48.04.71.07.47.08.7.02.47,0,.71-.05.47-.08.7-.02.48-.07.71c-.06.25-.19.47-.27.7s-.17.47-.27.69-.16.48-.29.69-.31.39-.45.59c-.15.21-.27.43-.43.61-.17.19-.35.36-.53.53-.19.18-.41.3-.59.45-.21.17-.37.37-.56.49-.24.16-.48.26-.64.35-.22.12-.45.21-.67.31s-.44.23-.67.31c-.24.09-.48.13-.71.19-.25.07-.48.17-.71.22-.26.05-.51.08-.73.11-.28.04-.52.08-.73.09-.44.04-.7.02-.69.04,0,.02.24-.07.69-.15.21-.04.46-.02.74-.05.23-.03.47-.05.73-.06.23-.01.48-.03.73-.03.24,0,.48,0,.74.02s.48.09.73.13.49.05.73.12c.24.06.46.17.68.26s.44.2.66.3.47.16.67.28c.21.13.43.25.62.38.2.14.34.36.52.51.2.16.42.28.58.44.19.18.35.36.5.53.18.2.35.38.47.54.24.31.34.56.37.61.12.2.23.42.34.64s.19.44.28.67.23.43.31.66.08.48.14.72.16.46.2.7.08.48.1.72-.04.49-.04.73-.01.48-.04.72-.06.48-.11.72-.04.49-.11.72-.23.43-.33.65-.2.44-.32.65-.22.43-.38.63c-.15.19-.35.32-.51.48s-.3.38-.48.52-.4.25-.6.37-.41.22-.62.32-.4.25-.62.33-.45.15-.67.21-.46.1-.69.14-.47.04-.7.07c-.24.03-.47.1-.69.12-.25.02-.48,0-.7,0-.26,0-.49-.01-.7-.02-.29-.01-.52-.04-.69-.05-.25-.02-.5-.04-.74-.07s-.49-.08-.73-.13-.49-.08-.73-.14-.49-.11-.72-.18-.48-.14-.71-.23c-.24-.09-.47-.18-.69-.27-.24-.1-.45-.24-.66-.34-.24-.11-.44-.26-.65-.37-.24-.12-.48-.19-.68-.3-.25-.13-.45-.29-.64-.37-.36-.17-.59-.2-.68-.08-.09.12.05.32.33.63.15.16.35.33.55.55.16.18.31.39.49.61.15.19.29.41.44.64.14.21.32.41.45.65.12.23.21.47.3.72.08.21.16.44.21.67s.04.47.07.7.06.46.08.7.05.47.05.7,0,.47-.04.71-.12.46-.16.69-.08.46-.15.69-.1.46-.18.68-.21.42-.31.64-.21.42-.33.62-.25.4-.39.59-.3.36-.45.54-.26.39-.44.56-.37.29-.56.44c-.19.16-.37.33-.57.46s-.45.22-.66.33-.42.26-.65.35-.45.21-.68.28-.49.07-.73.12-.47.15-.72.18-.49.07-.73.09-.49-.04-.74-.05-.49,0-.74-.03-.5-.02-.74-.07-.48-.13-.71-.2-.45-.2-.68-.29-.48-.16-.69-.27-.4-.29-.6-.43-.39-.3-.56-.47c-.18-.18-.35-.35-.5-.54s-.26-.42-.37-.64-.22-.44-.31-.67-.15-.46-.22-.7-.15-.47-.2-.71-.08-.49-.12-.73-.08-.49-.11-.73-.06-.49-.07-.73c-.02-.25.03-.5.02-.74-.01-.26-.1-.5-.11-.74-.01-.26.05-.52.03-.74-.03-.28-.14-.51-.2-.71-.09-.31-.17-.54-.39-.57-.22-.04-.43.11-.63.36-.13.16-.23.39-.4.62-.13.18-.3.37-.47.57-.15.18-.3.37-.49.55-.17.16-.34.34-.55.5-.19.14-.39.25-.59.38s-.38.28-.57.4-.42.21-.62.32-.42.2-.63.3-.39.28-.6.37-.46.13-.67.21c-.23.08-.44.16-.66.23-.23.07-.45.17-.66.22-.24.06-.47.11-.69.13-.26.03-.49-.04-.69-.05-.19-.02-.44-.04-.72-.11-.21-.05-.46-.1-.71-.17-.22-.07-.46-.13-.7-.22-.22-.08-.44-.19-.68-.29-.22-.09-.45-.18-.68-.29s-.44-.22-.65-.34-.42-.26-.63-.39-.42-.26-.62-.4-.39-.31-.57-.47-.37-.34-.53-.51-.32-.38-.47-.57-.27-.41-.39-.63-.23-.44-.31-.67c-.08-.22-.12-.46-.15-.68s-.05-.47-.04-.7.07-.46.11-.69.13-.44.21-.66.12-.44.22-.66.22-.4.34-.61.18-.44.3-.63.32-.34.46-.53.22-.42.37-.6.34-.33.5-.49.34-.33.5-.48c.17-.17.36-.3.53-.45.18-.16.34-.33.51-.47.19-.14.36-.3.55-.43s.39-.26.59-.37.43-.2.63-.3.43-.18.64-.27.42-.21.63-.29c.22-.08.44-.18.65-.25.23-.07.48-.07.69-.13.24-.07.46-.14.67-.19.26-.06.48-.12.67-.16.41-.09.65-.12.64-.17-.01-.05-.26-.01-.68.08-.2.05-.43.14-.7.19-.22.04-.45.09-.71.13-.23.03-.47.03-.72.05-.23.02-.47.04-.72.04s-.48-.04-.72-.06-.48,0-.72-.04-.47-.09-.71-.15-.44-.19-.67-.27c-.21-.08-.45-.11-.67-.22s-.37-.28-.57-.4-.42-.21-.61-.35-.38-.27-.56-.42-.31-.35-.47-.52-.35-.31-.51-.49-.26-.39-.4-.58-.26-.39-.38-.59-.23-.41-.33-.62-.15-.44-.22-.66-.19-.43-.24-.66-.1-.46-.13-.69-.09-.46-.09-.7,0-.47.03-.71c.02-.24.06-.48.1-.72s.16-.46.23-.69.12-.47.21-.69.16-.46.27-.67.28-.4.41-.6.26-.41.41-.6.34-.34.51-.51.32-.36.5-.51.38-.29.58-.43.39-.29.59-.41.44-.19.66-.28.44-.19.67-.26c.24-.07.47-.12.7-.16s.48-.02.72-.03.48-.05.72-.03.48.07.71.11.48.07.71.13.45.17.68.24.46.14.68.23.48.12.7.22.42.26.63.36.44.21.65.32c.22.11.47.17.67.27.23.12.43.26.63.36.23.12.45.22.65.31.25.12.46.24.66.29.31.08.56.07.69-.09.12-.15.08-.37-.04-.66-.07-.17-.2-.36-.32-.6-.09-.18-.14-.41-.24-.64-.09-.19-.18-.39-.27-.62-.08-.2-.18-.41-.26-.64-.06-.21-.14-.43-.2-.66-.04-.18-.1-.43-.15-.72-.04-.22-.04-.47-.08-.73-.03-.23-.07-.47-.09-.73-.01-.24,0-.48,0-.74,0-.24,0-.49.02-.74s.13-.47.18-.72.07-.48.15-.72c.03-.09.11-.35.26-.7.09-.2.22-.41.36-.66.11-.2.22-.43.36-.65.13-.2.3-.38.47-.58.15-.19.28-.4.46-.59.17-.18.35-.35.55-.52s.39-.31.6-.45.39-.31.62-.43.45-.23.69-.32.48-.16.73-.22c.23-.06.48-.04.71-.08s.47-.08.7-.1.48-.04.71-.04.47.05.71.07.47.05.71.1.46.11.69.18.45.16.67.25.44.18.65.3.41.25.6.38.43.24.6.39.32.36.47.54.31.37.43.57c.13.2.27.4.36.62s.12.46.18.69.13.45.17.69.08.47.09.71-.05.47-.06.71,0,.48-.02.71-.07.47-.1.7-.1.47-.15.69-.08.48-.13.7c-.06.24-.1.48-.15.7-.06.25-.14.47-.19.68-.06.26-.08.5-.1.7-.04.34-.06.6.1.67Z"/>
      <path class="cls-1" d="m23.51,18.6c-.24.03-.48.07-.71.14s-.45.17-.66.28-.42.23-.62.38-.37.3-.54.48-.33.35-.48.55-.27.4-.38.62-.2.44-.28.67-.12.47-.15.71c-.04.24-.05.47-.05.69,0,.24.02.47.06.69.04.24.11.46.18.67.08.23.18.45.28.64.12.23.24.43.35.6.21.31.4.48.44.52.11.11.29.29.55.47.17.13.38.27.61.39.2.1.43.2.67.28.22.07.46.12.71.14.23.03.46.03.7.02s.46-.05.69-.1.45-.11.67-.19.43-.18.64-.29.4-.24.59-.38.37-.28.54-.44.33-.33.47-.52.27-.38.38-.59.2-.42.27-.65.12-.45.15-.68c.03-.25.04-.5.03-.75s-.06-.5-.12-.74-.13-.48-.23-.71-.22-.45-.35-.66-.29-.41-.45-.59-.34-.36-.53-.52-.38-.32-.6-.45-.43-.26-.66-.35-.47-.17-.71-.23-.49-.11-.74-.13-.5,0-.75.03Z"/>
    </g>
  </g>
</svg>