<?xml version="1.0" encoding="UTF-8"?>
<svg id="_レイヤー_2" data-name="レイヤー 2" xmlns="http://www.w3.org/2000/svg" viewBox="0 0 47.19 46.21">
  <defs>
    <style>
      .cls-1 {
        fill: none;
        stroke: gray;
        stroke-linecap: round;
        stroke-linejoin: round;
        stroke-width: 1px;
      }
    </style>
  </defs>
  <g id="top">
    <g>
      <path class="cls-1" d="m24.22,12.38c.06-.01-.06-.24-.14-.74-.04-.24.03-.55,0-.87-.03-.26,0-.55,0-.86-.01-.27-.06-.55-.04-.85.01-.28.08-.55.12-.85s-.08-.6,0-.89c.09-.31.19-.62.32-.9s.44-.49.6-.75.26-.59.45-.83.48-.41.7-.63.41-.48.65-.68.47-.43.73-.6.58-.28.84-.44c.28-.17.48-.48.75-.61.3-.15.64-.19.9-.31.32-.14.63-.23.88-.32.46-.16.82-.1.93-.13.28-.08.56-.15.85-.22s.53-.32.81-.38.6.07.89.04.57-.07.86-.04.55.12.83.21.66-.04.91.12c.25.16.33.52.53.74s.4.41.55.67.37.47.48.75.2.55.27.85.03.59.07.88.15.58.16.87-.11.58-.13.88-.09.58-.13.87.03.6-.03.89-.22.55-.3.83-.17.56-.28.83c-.12.29-.29.54-.44.81s-.17.62-.34.87-.41.48-.6.71-.44.44-.65.66-.38.51-.6.71c-.23.21-.61.24-.84.42-.25.2-.35.58-.59.75-.27.19-.55.33-.79.48-.29.19-.59.3-.81.44-.47.29-.78.48-.74.54.04.06.35-.08.81-.34.21-.12.41-.37.7-.53.23-.12.53-.17.81-.31.25-.12.49-.27.77-.39.26-.11.57-.1.85-.21.26-.1.49-.31.78-.4s.53-.23.82-.3.6.07.89.01c.21-.04.51-.11.88-.17.27-.04.55-.24.87-.28.28-.03.6.08.91.07.29-.01.59-.07.9-.06s.59.13.89.16.62-.06.91,0,.6.16.87.28.54.3.78.48.55.33.74.58c.18.24.29.57.4.86s.05.61.1.93.17.59.17.91,0,.62-.05.93-.19.59-.27.89-.22.57-.34.86-.13.62-.27.89-.49.42-.66.68-.2.61-.4.84-.4.48-.62.69-.45.44-.7.62c-.25.18-.57.26-.84.41s-.56.26-.85.37-.56.31-.85.38-.62.07-.93.12-.61.18-.91.2-.63-.2-.93-.2c-.32,0-.63.14-.93.12-.33-.01-.64-.07-.92-.1-.35-.03-.65-.14-.91-.17-.55-.06-.74,0-.74.09,0,.08.16.13.68.19.25.03.57-.08.9-.03.27.04.54.24.84.31.28.06.56.14.85.23s.55.2.82.32.56.19.81.34.44.39.66.58.45.37.64.6c.18.24.27.52.41.79s.21.53.3.82.43.51.47.81-.04.61-.04.91-.13.59-.16.89-.09.58-.15.87-.08.59-.17.87-.07.61-.18.89-.27.55-.41.8c-.03.06-.34.26-.66.67-.16.21-.26.54-.5.79-.2.21-.47.38-.72.59-.23.19-.48.36-.75.54-.25.17-.51.32-.79.47-.27.14-.55.25-.85.36-.28.11-.56.25-.87.32-.3.07-.61.07-.92.1s-.61.02-.92,0-.63.16-.94.12-.63-.08-.93-.16-.55-.32-.85-.43-.63-.1-.91-.24-.52-.35-.79-.51-.54-.3-.8-.49-.44-.44-.68-.65-.52-.35-.75-.57-.32-.55-.52-.79-.54-.36-.73-.62-.3-.51-.47-.78c.02.25-.04.53-.04.9,0,.28.19.6.16.94-.02.3-.25.59-.3.91-.04.3-.06.61-.14.93-.07.29-.13.6-.24.91-.1.29-.16.6-.29.9-.12.28-.21.6-.37.88-.06.11-.23.37-.48.74-.14.21-.44.36-.64.61-.17.21-.36.43-.57.66-.19.21-.22.59-.44.8-.2.2-.53.28-.76.47s-.41.43-.65.59-.54.22-.81.36-.48.36-.75.47-.56.17-.85.24-.57.21-.86.24-.59-.04-.89-.05c-.11,0-.47-.12-.97-.21-.28-.05-.62-.09-.97-.19-.3-.09-.6-.23-.91-.37-.29-.13-.55-.33-.83-.51s-.53-.36-.77-.6-.46-.45-.63-.74c-.16-.26-.24-.55-.34-.83s-.32-.54-.37-.85-.02-.61-.02-.92.17-.59.19-.9-.01-.6.04-.91.16-.58.23-.88.11-.59.2-.89.1-.61.2-.89.38-.5.5-.78.07-.63.19-.91.22-.57.35-.84.34-.52.47-.78.27-.55.4-.82c.14-.28.24-.57.37-.83.15-.28.28-.56.41-.82.15-.29.46-.48.58-.73.15-.31.12-.67.21-.9.19-.46.33-.77.2-.86-.14-.09-.5.07-.87.42-.2.18-.3.54-.56.79-.21.2-.51.34-.77.55-.23.19-.42.47-.69.66-.25.18-.63.17-.91.33-.27.15-.45.48-.75.61s-.56.32-.87.42-.65.03-.97.08c-.3.05-.59-.01-.86,0-.31.02-.6.16-.85.15-.36-.02-.63-.27-.82-.3-.23-.03-.56-.04-.96-.13-.29-.06-.62-.06-.96-.16-.3-.09-.67-.05-.98-.19-.29-.13-.6-.29-.88-.47s-.54-.4-.78-.63-.34-.57-.53-.85c-.18-.27-.39-.52-.5-.81s-.07-.64-.13-.95-.15-.61-.16-.93.02-.63.05-.94-.02-.65.05-.96c.07-.32.19-.62.3-.91.11-.32.18-.65.32-.91.14-.27.44-.44.61-.68s.27-.55.47-.77.38-.48.6-.67.53-.29.78-.46.52-.29.78-.44.48-.38.75-.5.61-.07.9-.16.53-.3.82-.38.6-.04.9-.09.58-.13.88-.15.6.01.9,0,.6-.04.89-.03.61-.09.9-.06.6.08.89.13.61.06.89.13c.3.07.59.18.86.27.32.11.05-.07-.51-.44-.23-.15-.62-.16-.9-.38-.24-.18-.37-.53-.62-.75-.23-.21-.52-.36-.74-.6s-.43-.47-.62-.74-.24-.59-.38-.88c-.13-.27-.26-.52-.34-.79-.08-.29-.26-.56-.29-.84-.03-.3.03-.61.03-.89,0-.31-.09-.62-.05-.89.05-.32.26-.58.32-.83.1-.4.32-.65.37-.79.11-.31.19-.61.32-.88.14-.3.11-.67.26-.93.17-.28.38-.53.56-.76.2-.26.52-.4.73-.61.23-.24.35-.57.58-.76.26-.21.53-.4.77-.55.29-.18.64-.2.9-.32.35-.15.62-.32.86-.37.24-.06.52-.2.83-.25.27-.04.57.02.87,0,.28-.03.58.14.87.13s.58-.16.86-.15c.3.01.59,0,.86.05.31.05.55.23.79.33.27.13.49.29.72.48s.46.35.65.57.41.42.57.67.17.57.3.84.4.47.51.74.26.55.34.83c.09.29.06.61.12.89.08.31.2.58.26.85.07.33.14.62.18.87.1.52.1.77.17.76Z"/>
      <path class="cls-1" d="m22.96,25.19c-.23.01-.53.05-.86.06-.27,0-.56-.02-.86-.05s-.55-.12-.82-.22-.5-.24-.72-.42c-.21-.17-.34-.4-.47-.67-.13-.26-.2-.53-.24-.87-.03-.29-.07-.59-.04-.92.03-.3.03-.62.12-.93s.24-.57.37-.86.15-.64.33-.9.45-.46.67-.68.45-.46.72-.63.61-.17.91-.28c.29-.1.57-.23.89-.27.28-.03.57,0,.87.01.29.01.59-.05.88,0s.53.26.81.35.58.13.83.26.53.27.75.46.35.47.51.71.44.43.53.72c.08.28-.03.58-.03.86s0,.56-.08.83-.17.54-.29.79-.27.5-.43.72c-.17.24-.32.5-.51.68-.21.2-.4.43-.63.57-.24.15-.52.26-.77.35s-.56.08-.83.13-.53.22-.8.25-.57-.08-.83-.07Z"/>
    </g>
  </g>
</svg>