<?xml version="1.0" encoding="UTF-8"?>
<svg id="_レイヤー_2" data-name="レイヤー 2" xmlns="http://www.w3.org/2000/svg" viewBox="0 0 49.98 49.66">
  <defs>
    <style>
      .cls-1 {
        fill: none;
        stroke: gray;
        stroke-linecap: round;
        stroke-linejoin: round;
      }
    </style>
  </defs>
  <g id="top">
    <g>
      <path class="cls-1" d="m30.42,12.48c.17,0,.17-.23.13-.65-.02-.19-.08-.42-.08-.7,0-.21,0-.45.02-.71.02-.21.03-.45.08-.7.04-.22.15-.43.21-.67.06-.21.08-.45.16-.69.07-.21.2-.41.3-.64.09-.21.17-.43.28-.65.1-.2.24-.39.36-.61.11-.2.21-.41.34-.62.12-.19.24-.4.38-.6.13-.19.23-.41.38-.61s.33-.36.52-.55c.16-.17.34-.35.54-.52.19-.16.38-.32.6-.46.2-.14.42-.27.65-.39s.46-.21.7-.29c.23-.08.48-.12.73-.18s.48-.13.74-.16c.24-.03.5-.05.76-.05.24,0,.47.11.7.16s.47.08.69.17.43.2.64.32.44.2.63.35.34.34.51.51.33.34.48.53.27.39.41.59.34.36.45.57.15.46.24.68.18.45.24.67.15.46.19.69c.04.23.08.46.09.68s.03.47.01.69-.02.47-.06.69c-.04.23-.17.44-.23.65-.06.23-.12.45-.2.66-.08.22-.18.43-.27.63-.1.22-.23.41-.33.6-.12.23-.2.45-.3.61-.13.22-.3.4-.44.6s-.31.39-.46.58-.31.4-.47.58c-.17.19-.35.36-.53.53-.19.18-.37.34-.56.5-.2.17-.39.32-.58.46-.21.16-.39.33-.58.47-.22.16-.42.31-.6.44-.24.17-.46.28-.62.41-.3.24-.45.46-.38.62.06.16.32.18.69.15.2-.02.45-.05.73-.09.22-.03.46-.07.72-.11.23-.03.47-.08.72-.1.23-.02.48-.06.73-.08.24-.01.48.02.73.02.24,0,.48.03.73.04s.49-.02.74,0,.48.09.73.14c.23.04.47.09.73.14.24.05.49.07.74.13.24.06.47.14.72.22s.48.13.72.23.42.28.64.41.46.21.66.37.36.34.53.53.33.37.48.58c.15.21.29.43.39.65s.16.48.23.72.08.5.12.74.11.5.11.75,0,.51-.01.76c-.03.26-.1.51-.15.75-.05.26-.06.52-.12.75-.08.27-.17.51-.24.72-.15.39-.31.62-.34.67-.12.23-.2.47-.34.67-.14.21-.29.41-.45.6-.16.2-.33.38-.51.55-.18.18-.38.33-.57.48-.2.16-.39.32-.59.45-.22.14-.46.23-.67.34-.23.12-.46.23-.67.32-.25.11-.49.18-.7.25-.32.11-.56.23-.7.26-.24.06-.49.05-.73.08s-.49.05-.73.06-.49.08-.73.08-.49-.08-.73-.1-.49-.04-.73-.07-.49-.1-.72-.15c-.25-.06-.47-.15-.7-.22-.25-.07-.5-.1-.72-.17-.25-.09-.47-.19-.68-.28-.26-.1-.48-.21-.67-.29-.41-.18-.64-.27-.64-.26,0,.02.23.11.65.22.2.05.44.06.7.13.21.06.45.11.68.2.21.08.43.17.66.26.21.09.41.22.63.33s.43.19.64.31.4.25.6.39.41.25.59.4.3.37.47.54.31.35.45.54.33.35.45.56c.11.2.21.42.3.64s.09.46.14.69.17.44.2.68.06.47.06.71,0,.47,0,.71-.11.46-.15.69-.01.48-.07.7-.14.45-.22.67-.19.43-.3.64-.21.42-.34.62-.26.4-.41.58-.38.29-.55.45c-.17.16-.3.36-.49.5s-.4.24-.6.35-.42.2-.63.29-.44.16-.66.22-.45.1-.68.15-.45.08-.68.1-.46.08-.69.08-.46-.1-.69-.12-.47,0-.69-.04-.45-.11-.67-.18c-.23-.07-.47-.15-.69-.24s-.45-.19-.66-.31-.37-.33-.56-.47-.43-.23-.62-.39-.34-.35-.51-.52-.34-.35-.5-.53-.36-.33-.51-.52-.27-.41-.41-.6c-.15-.2-.28-.4-.41-.6-.14-.21-.25-.43-.37-.63-.14-.22-.33-.39-.45-.58-.14-.24-.19-.49-.3-.66-.22-.35-.43-.56-.53-.51-.09.05.01.33.17.73.08.2.18.42.28.69.08.21.13.46.22.71.08.22.21.44.28.69.07.23.05.49.11.74.05.24.15.47.19.72s.02.49.04.75.07.49.07.75-.03.49-.05.75c-.02.23,0,.47-.05.72-.04.23-.06.47-.12.72-.05.23-.13.46-.2.7s-.22.43-.31.66-.1.48-.2.7-.22.43-.34.64-.3.38-.44.58-.29.38-.46.56-.32.37-.51.52-.42.24-.63.36-.4.26-.63.35c-.22.09-.46.14-.69.19s-.47.1-.71.12-.48,0-.72-.02-.47-.05-.71-.1-.48-.06-.71-.13-.43-.23-.65-.32-.46-.14-.67-.25-.38-.29-.59-.41-.4-.26-.59-.4-.43-.22-.61-.38-.37-.31-.54-.48-.33-.36-.48-.54-.31-.37-.45-.56-.25-.41-.37-.62-.2-.44-.3-.65-.24-.42-.32-.64c-.08-.23-.18-.46-.23-.69s-.05-.48-.07-.72-.03-.48-.03-.72-.02-.48,0-.72.01-.49.05-.73.08-.48.13-.72.15-.47.21-.7.09-.48.16-.71c.07-.24.18-.46.26-.68.08-.24.2-.46.28-.67.09-.24.15-.48.23-.69.1-.26.21-.48.27-.67.13-.38.18-.67.07-.72-.11-.05-.26.2-.47.52-.11.16-.22.37-.37.59-.12.18-.31.33-.46.54-.13.18-.24.4-.39.59-.15.17-.32.34-.49.51-.16.16-.37.28-.56.43s-.36.29-.57.42-.41.21-.63.31c-.21.1-.4.24-.62.31s-.45.12-.67.17-.46.05-.69.07-.46.06-.69.06-.46,0-.69-.02-.45-.1-.68-.14-.44-.12-.67-.18-.46-.08-.67-.16-.43-.18-.64-.27-.44-.15-.64-.27-.39-.25-.58-.38-.34-.32-.52-.47c-.19-.15-.38-.3-.55-.47s-.31-.37-.47-.56-.34-.35-.48-.55-.23-.43-.35-.64-.3-.39-.4-.61-.21-.44-.29-.67-.14-.47-.2-.7-.08-.48-.12-.72-.08-.48-.09-.72,0-.49.03-.73,0-.49.05-.73.14-.47.23-.69c.09-.23.26-.42.39-.64s.26-.41.42-.61.27-.42.45-.59.38-.32.57-.48.43-.25.63-.39.4-.29.62-.42.43-.25.65-.36.46-.21.68-.31.46-.21.68-.3c.24-.1.47-.2.7-.28.25-.09.5-.14.72-.21.27-.09.49-.22.68-.29.41-.15.66-.22.63-.32-.03-.1-.29-.02-.71.07-.2.05-.44.13-.71.19-.22.05-.48.02-.73.07-.23.04-.47.08-.73.1-.24.03-.48.13-.73.14s-.49,0-.74,0-.49-.07-.73-.11-.48-.1-.72-.18-.46-.16-.69-.27c-.21-.1-.42-.22-.62-.35s-.42-.23-.6-.39-.34-.33-.51-.5-.34-.33-.49-.52-.27-.39-.4-.59-.24-.41-.36-.62-.22-.42-.31-.64-.22-.43-.29-.65-.13-.46-.18-.69-.03-.48-.07-.71-.06-.47-.07-.71-.04-.47-.03-.71,0-.48.02-.71c.03-.24.09-.48.14-.72s.11-.48.18-.71.13-.48.22-.7.26-.42.37-.63.24-.42.37-.63.29-.39.44-.58.31-.38.47-.55.3-.39.49-.55.37-.32.57-.46.43-.24.64-.36.4-.29.63-.38.47-.16.7-.23c.26-.08.52-.12.77-.16.26-.04.52-.06.78-.07s.52-.04.79-.02.52.06.78.09c.25.04.51.08.78.12.23.04.46.1.68.15s.46.11.68.16.46.11.67.17.44.16.65.23c.23.07.45.13.66.21.22.08.44.16.65.25.22.09.44.16.65.25.22.1.41.24.61.34.22.11.43.21.62.31.23.11.46.17.65.26.24.12.43.27.61.33.32.11.52.09.64-.04.12-.14.07-.33-.1-.63-.1-.17-.25-.37-.41-.59-.13-.18-.24-.39-.39-.6-.13-.19-.26-.39-.4-.6-.13-.2-.25-.41-.37-.62s-.24-.41-.34-.63-.17-.45-.25-.68-.16-.45-.21-.69-.13-.47-.15-.71.03-.48.06-.72c.03-.23.09-.46.15-.69s.08-.47.18-.69.22-.42.34-.62.26-.39.41-.58.34-.33.51-.5.3-.36.48-.52.37-.29.56-.43.42-.22.62-.34.42-.22.63-.32.42-.22.64-.3.45-.13.68-.19c.22-.06.44-.12.66-.16s.45-.13.67-.15.46.06.69.06.46-.07.69-.05.46.07.68.12.45.09.67.16.43.16.64.24.4.23.6.33.45.14.64.27.38.27.56.41c.19.15.33.36.49.52s.38.3.53.48.28.39.41.59.19.44.31.65.29.39.39.6.17.45.26.67.1.47.17.7.16.45.22.68.11.47.16.7.11.47.15.7.03.48.06.72c.03.24.12.47.15.7.03.25.02.49.04.72.03.26.06.49.09.71.03.27.1.51.14.7.08.37.16.59.31.6Z"/>
      <path class="cls-1" d="m25.23,18.96c-.15-.03-.39-.07-.7-.11-.21-.03-.44-.06-.7-.07-.22,0-.46,0-.71,0-.23.01-.46.04-.7.09s-.46.1-.69.17-.44.17-.65.29-.39.26-.57.42c-.17.15-.34.32-.49.51-.14.19-.28.37-.38.58s-.2.42-.27.64-.12.45-.15.68-.05.46-.04.69.04.46.08.69.08.46.15.68.16.44.26.64.22.41.35.6c.14.2.29.39.45.56s.37.31.56.45.4.26.62.37.44.2.67.27.46.14.7.18.48.06.72.07.48,0,.72-.01.48-.06.71-.11.47-.12.69-.2.44-.19.65-.3c.2-.11.4-.23.59-.37s.37-.28.54-.44.33-.33.48-.51.29-.36.42-.56.24-.4.34-.61.18-.43.25-.65.12-.45.14-.68.02-.46,0-.7-.08-.45-.15-.68c-.08-.23-.18-.44-.31-.63s-.27-.39-.44-.55-.36-.31-.55-.44-.4-.26-.6-.36c-.22-.11-.44-.18-.65-.26-.24-.09-.47-.15-.67-.21-.28-.07-.52-.13-.67-.16Z"/>
    </g>
  </g>
</svg>