<?xml version="1.0" encoding="UTF-8"?>
<svg id="_レイヤー_2" data-name="レイヤー 2" xmlns="http://www.w3.org/2000/svg" viewBox="0 0 211.45 92.82">
  <defs>
    <style>
      .cls-1 {
        fill: none;
        stroke: gray;
        stroke-miterlimit: 10;
      }
    </style>
  </defs>
  <g id="top">
    <path class="cls-1" d="m.29,67.48c.2.14.39.29.58.43s.23.51.43.65.61-.02.8.12.22.53.42.67.5.13.7.26.27.46.47.59.41.26.61.4.51.1.71.23.46.19.66.32.3.42.5.55.45.19.66.32.28.47.48.6.45.19.66.32.56.02.76.15.4.27.6.4.36.34.57.46.42.24.63.36.42.25.62.37.33.39.54.52.5.11.71.23.29.47.5.59.42.24.63.36.48.14.69.26.55,0,.76.13.3.45.51.57.51.08.72.19.36.36.57.47.4.28.61.39.39.3.6.41.54.02.75.13.43.23.64.34.49.11.7.22.3.48.52.59.48.12.7.22.51.06.73.16.37.35.58.46.46.15.68.25.4.29.62.39.51.05.73.15.43.23.65.33.43.22.65.32.45.17.67.26.34.42.56.52.46.15.68.25.46.15.68.24.41.28.63.37.46.16.68.25.46.15.69.24.38.34.61.43.51.04.73.12.52-.02.75.07.4.29.63.38.43.23.66.31.42.26.65.34.46.14.69.22.55-.12.78-.04.43.22.66.3.44.19.67.27.44.22.67.29.4.35.62.42.48.1.71.17.5.01.73.08.48.08.71.15.42.29.65.36.52-.07.75,0,.43.26.66.32.44.22.67.28.53-.1.76-.04.44.21.68.27.46.15.69.21.47.13.7.18.51-.08.75-.02.45.21.68.26.49.04.72.09.46.17.69.22.43.29.67.33.54-.26.78-.21.4.5.63.54.49.03.72.07.49-.03.73.01.48.06.71.1.49-.02.73.01.45.29.68.33.48.05.72.09.48.05.72.09.52-.24.76-.21.46.25.7.28.5-.09.74-.07.45.32.69.34.5-.16.74-.14.49-.08.73-.06.46.36.7.37.5-.29.74-.27.48.09.72.11.47.32.71.33.48.08.72.08.48,0,.72.02.49-.06.73-.05.49-.24.73-.24.48.33.72.33.48-.35.72-.35.48.16.72.16.48-.13.72-.14.48.09.72.08.48,0,.72-.02.47-.19.71-.2.49.11.73.1.49.1.73.09.47-.16.71-.18.49.13.73.1.49.01.72-.01.47-.13.71-.16.45-.31.69-.33.52.27.76.24.45-.24.69-.27.47-.1.71-.13.46-.14.7-.18.51.11.74.07.44-.27.67-.31.5.04.73,0,.48-.09.71-.14.5,0,.73-.05.43-.3.66-.35.52.1.76.04.44-.25.67-.31.44-.24.67-.3.54.13.77.06.41-.31.64-.38.49-.04.72-.12.43-.24.65-.32.46-.14.69-.22.49-.07.71-.15.42-.25.64-.34.38-.35.6-.44.55.08.77-.01.38-.34.59-.43.37-.33.59-.43.57.08.78-.03.31-.45.52-.56.56.03.77-.08.28-.49.49-.61.5-.1.7-.22.34-.36.54-.48.48-.14.67-.27.44-.2.64-.34.22-.52.41-.66.5-.13.69-.28.29-.4.47-.55.41-.26.58-.42.42-.26.58-.42.36-.32.52-.49c.17-.18.11-.56.28-.74s.61-.1.77-.28.32-.37.48-.55.27-.41.43-.59.19-.48.35-.66.4-.29.56-.48.45-.26.6-.44.14-.52.29-.7.48-.24.63-.42.33-.36.49-.54.23-.44.38-.63.23-.44.37-.63.28-.4.43-.59.23-.43.38-.62.32-.37.46-.56.48-.25.63-.44.03-.58.17-.78.31-.37.45-.57.26-.41.39-.61.39-.32.52-.52.24-.42.37-.62.37-.33.5-.54.27-.4.4-.6.3-.38.43-.59.13-.49.25-.7.4-.33.52-.53.24-.43.36-.64.08-.51.2-.72.19-.45.3-.66.21-.44.33-.65.29-.4.4-.61.38-.35.49-.57.11-.49.21-.71.02-.53.12-.75.34-.38.44-.59.34-.38.43-.6.12-.48.22-.7.07-.5.16-.72.3-.4.39-.62,0-.52.08-.75.5-.33.59-.55.11-.48.19-.7,0-.51.08-.74.06-.49.14-.72.17-.45.24-.68.37-.39.45-.62,0-.51.06-.74.42-.38.49-.61.05-.49.12-.72.07-.48.13-.71.13-.47.2-.7.05-.49.12-.72.3-.42.36-.65.02-.5.08-.73.33-.41.4-.64-.04-.51.03-.74.23-.44.29-.67.03-.49.1-.72,0-.5.06-.73.1-.47.16-.7.21-.44.28-.67.09-.47.17-.7.15-.46.22-.68.46-.35.54-.58.08-.48.16-.7.03-.5.12-.72.27-.41.36-.63,0-.51.09-.73.27-.41.36-.63.28-.4.38-.62.06-.49.16-.71.14-.46.25-.68.43-.32.54-.53.06-.5.17-.72.27-.4.38-.61.17-.45.29-.66.16-.46.29-.67.24-.41.37-.62.24-.42.37-.63.25-.42.38-.62.29-.39.42-.59.3-.38.44-.58.55-.21.69-.4-.05-.63.09-.83.55-.2.69-.39.34-.35.49-.54-.01-.62.14-.81.61-.14.75-.33.2-.46.35-.64.15-.5.31-.68.4-.3.56-.48.35-.34.51-.52.16-.51.32-.69.39-.3.55-.48.5-.2.66-.38.28-.4.44-.58.33-.35.5-.53.32-.37.49-.54.25-.43.43-.6.5-.18.67-.35.34-.34.52-.51.32-.36.5-.53.32-.37.49-.53.38-.3.56-.46.35-.34.53-.49.35-.34.53-.49.47-.19.65-.34.24-.47.43-.62.29-.41.48-.56.56-.06.76-.2.38-.3.57-.44.36-.32.56-.46.39-.28.59-.42.3-.41.5-.55.49-.14.69-.27.37-.31.58-.44.34-.36.55-.49.39-.3.59-.42.47-.16.68-.28.54-.04.75-.16.36-.33.57-.45.37-.33.58-.45.41-.26.62-.37.52-.05.73-.16.39-.29.61-.4.41-.27.62-.37.4-.29.61-.39.42-.23.64-.34.39-.3.61-.4.5-.06.72-.16.4-.29.62-.38.43-.24.65-.33.5-.06.72-.15.48-.12.7-.21.51-.03.73-.12.36-.41.58-.49.47-.11.7-.2.47-.12.69-.2.37-.39.6-.47.57.15.8.07.34-.48.57-.56.58.21.81.13.42-.27.64-.35.41-.29.64-.37.42-.27.64-.34.57.2.8.12.45-.17.68-.24.43-.21.66-.29.47-.11.7-.18.43-.23.65-.31.39-.33.61-.4c.23-.07.53.1.76.03s.49-.04.72-.1.45-.16.68-.22.44-.21.68-.26.46-.15.69-.2.49,0,.73-.04.43-.35.66-.39.53.27.77.24.48-.04.71-.07.46-.19.7-.21.47-.17.71-.19.5.24.74.22.47-.05.71-.06.47-.15.71-.16.48.11.72.1.48-.07.72-.07.48-.09.72-.08.49-.14.73-.13.48.05.72.07.46.3.7.32.5-.19.74-.17.48.07.71.09.45.26.69.29.51-.22.75-.19.47.08.71.12.45.21.69.25.48.03.72.08.49-.01.73.04.47.1.71.15.4.43.63.49.54-.18.77-.12.4.36.63.42.5,0,.73.06.45.17.68.24.43.24.66.31.56-.2.79-.13.35.49.57.57.46.14.68.22.47.1.7.18.47.1.7.18.48.09.7.17.52,0,.74.09.4.29.63.38.49.08.71.17.34.45.56.54.52,0,.74.11.44.2.66.3.44.19.66.29.31.46.53.56.44.18.66.29.57-.07.78.04.37.34.58.44.47.14.68.25.42.23.63.34.46.17.67.28.41.26.62.37.33.4.54.51.38.3.58.42.56-.02.76.1.37.33.57.45.38.29.58.41.42.23.62.35"/>
  </g>
</svg>