<?xml version="1.0" encoding="UTF-8"?>
<svg id="_レイヤー_2" data-name="レイヤー 2" xmlns="http://www.w3.org/2000/svg" viewBox="0 0 179.55 220.34">
  <defs>
    <style>
      .cls-1 {
        fill: none;
        stroke: gray;
        stroke-linecap: round;
        stroke-linejoin: round;
      }
    </style>
  </defs>
  <g id="top">
    <g>
      <path class="cls-1" d="m142.51,22.86c-.79.94-1.41,1.99-2.08,2.98s-1.41,1.99-1.98,3.04-.99,2.22-1.46,3.32-.91,2.25-1.29,3.39-.92,2.27-1.22,3.43-.57,2.38-.78,3.55-.28,2.44-.42,3.61c-.15,1.24-.12,2.45-.2,3.62-.08,1.26-.26,2.46-.27,3.61-.01,1.29-.02,2.52.02,3.63.06,1.37.22,2.58.32,3.61.22,2.25-1.12,2.82.43,3.73,1.59.93,1.37-.57,3.5-1.57.94-.44,2.11-.88,3.35-1.56.99-.54,1.93-1.38,3.07-2.07.99-.6,2.16-1.07,3.23-1.8.97-.66,1.91-1.47,2.94-2.24.95-.71,2.01-1.36,3-2.17.92-.76,1.75-1.69,2.69-2.54.89-.8,1.79-1.65,2.68-2.54s1.59-1.84,2.45-2.77,1.82-1.65,2.63-2.61,1.39-2.08,2.11-3.09,1.53-1.98,2.18-3.04,1.34-2.12,1.92-3.22,1.07-2.27,1.59-3.39.97-2.31,1.43-3.46,1.02-2.31,1.42-3.46.89-2.37,1.24-3.54c.37-1.23.59-2.47.89-3.64.33-1.26.69-2.47.94-3.62.29-1.31.47-2.56.68-3.69.25-1.39.28-2.66.43-3.71.33-2.33,1.91-2.45.53-3.7-1.32-1.19-1.31.26-3.43.98-.95.32-2.12.64-3.37,1.12-1.02.39-2.12.85-3.29,1.35-1.03.45-2.04,1.1-3.16,1.64-1.03.5-2.09,1.03-3.17,1.6-1.02.54-2.02,1.18-3.07,1.8-1,.59-1.98,1.25-2.99,1.91s-1.96,1.3-2.93,2.01-1.93,1.35-2.86,2.11-1.71,1.63-2.59,2.44-1.85,1.48-2.68,2.34c-.82.85-1.67,1.69-2.44,2.6Z"/>
      <path class="cls-1" d="m75.14,65.01c.13,1.23.4,2.41.65,3.59s.32,2.46.7,3.61.93,2.28,1.41,3.39.93,2.29,1.5,3.35,1.24,2.14,1.88,3.16c.67,1.06,1.35,2.08,2.05,3.04.75,1.03,1.39,2.1,2.13,3,.83,1.01,1.78,1.83,2.55,2.66.94,1.02,1.69,2.02,2.44,2.75,1.64,1.58,2.72,2.19,2.72,2.19,1.17-1.41.97-.99,2.25-2.88.59-.87,1.47-1.78,2.18-2.97.58-.97,1.02-2.14,1.62-3.3.54-1.03,1.11-2.12,1.63-3.28.48-1.08.89-2.24,1.33-3.42s.8-2.28,1.14-3.48.63-2.35.87-3.56.34-2.4.47-3.63.43-2.41.43-3.65,0-2.45-.13-3.68-.61-2.39-.87-3.58-.41-2.43-.78-3.58-.84-2.32-1.31-3.43-1.14-2.18-1.7-3.25-1.2-2.15-1.84-3.17c-.67-1.06-1.41-2.03-2.1-2.99-.75-1.03-1.3-2.15-2.04-3.05-.83-1.01-1.83-1.77-2.6-2.6-.94-1.02-1.6-2.1-2.36-2.82-1.64-1.58-1.01-2.67-2.83-2.48s-1.03,1.09-2.31,2.98c-.59.87-1.04,2.05-1.75,3.24-.58.97-1.27,2-1.87,3.15-.54,1.03-1.14,2.11-1.66,3.27-.48,1.08-.91,2.24-1.35,3.42s-.7,2.32-1.04,3.52-.71,2.33-.95,3.54-.31,2.41-.44,3.64-.19,2.42-.2,3.66.07,2.42.19,3.65Z"/>
      <path class="cls-1" d="m7.08,118.82c.66,1.09,1.2,2.25,1.95,3.25s1.68,1.91,2.51,2.84,1.64,1.95,2.55,2.81,1.99,1.59,2.95,2.38c1,.82,1.85,1.78,2.86,2.5,1.06.75,2.21,1.32,3.24,1.96,1.12.7,2.13,1.49,3.19,2.07,1.19.64,2.34,1.21,3.39,1.71,1.29.61,2.49,1.08,3.48,1.48,2.19.88,2.02,2.19,3.63,1.22s.15-1.46.4-3.81c.11-1.07.29-2.33.36-3.76.06-1.16.17-2.43.15-3.78-.01-1.2-.27-2.45-.36-3.77-.08-1.22-.19-2.47-.36-3.76-.16-1.22-.28-2.48-.53-3.74s-.62-2.42-.97-3.65-.6-2.43-1.05-3.63-.96-2.32-1.51-3.47-.96-2.34-1.62-3.44-1.6-1.98-2.35-2.99-1.43-2.1-2.26-3.03-1.68-1.91-2.59-2.77-1.88-1.73-2.84-2.51-2.16-1.37-3.16-2.09c-1.06-.75-2.06-1.52-3.09-2.17-1.12-.7-2.26-1.24-3.32-1.82-1.19-.64-2.24-1.36-3.3-1.86-1.29-.61-2.47-1.09-3.47-1.49-2.19-.88-1.89-2.23-3.5-1.26-1.62.98-.35,1.34-.6,3.69-.11,1.07-.29,2.34-.36,3.77-.06,1.16.09,2.44.1,3.79.01,1.2.11,2.46.2,3.77.08,1.22.1,2.48.27,3.77.16,1.22.32,2.48.58,3.74s.59,2.43.94,3.67.72,2.4,1.17,3.6.94,2.32,1.49,3.48,1.16,2.22,1.82,3.31Z"/>
      <path class="cls-1" d="m132.78,65.22c-.6,1.12-1.3,2.14-1.9,3.21s-.68,2.51-1.3,3.56-1.84,1.82-2.49,2.86-1.13,2.26-1.79,3.28-1.18,2.24-1.87,3.25-1.88,1.76-2.58,2.75-1.32,2.15-2.05,3.12c-.77,1.02-1.14,2.31-1.89,3.26-.8,1.01-1.74,1.85-2.51,2.78-.83.99-1.5,2.06-2.29,2.97-.85.98-1.79,1.82-2.59,2.7-.89.97-1.92,1.7-2.73,2.55-.91.94-1.52,2.08-2.37,2.92-.93.91-2.2,1.38-3.08,2.19-.95.88-1.43,2.19-2.35,2.98-.96.83-2.03,1.5-2.98,2.28s-2.21,1.21-3.2,1.98c-.96.75-1.84,1.64-2.85,2.41-.96.73-1.91,1.52-2.94,2.31-.95.73-1.86,1.57-2.89,2.37-.94.73-1.89,1.52-2.91,2.34-.93.74-1.91,1.5-2.92,2.33-.92.75-1.66,1.8-2.66,2.64-.92.77-2.22,1.15-3.2,2-.91.78-1.75,1.72-2.72,2.57-.91.79-1.71,1.76-2.68,2.63-.97.87-2.15,1.45-3.06,2.27-.97.87-2.06,1.55-2.98,2.37-.97.87-1.43,2.25-2.34,3.08-.97.87-2.35,1.23-3.26,2.07-.96.88-1.94,1.68-2.84,2.52-.94.89-1.67,1.96-2.56,2.83-.92.9-1.64,1.97-2.52,2.86s-1.68,1.9-2.54,2.81-2.05,1.55-2.89,2.49-1.24,2.25-2.06,3.23-1.79,1.77-2.58,2.78c-.7.9-1.29,1.96-2.03,2.98-.68.93-1.95,1.51-2.66,2.54-.66.96-.89,2.26-1.56,3.3-.64.98-1.06,2.13-1.7,3.18-.61,1-1.53,1.85-2.15,2.92s-1.06,2.13-1.64,3.21-1.06,2.12-1.62,3.22-1.33,2-1.85,3.11-.56,2.36-1.06,3.48-1.23,2.06-1.69,3.19-.67,2.3-1.11,3.44-1.14,2.12-1.55,3.27-.47,2.36-.86,3.52-1.18,2.13-1.54,3.3-.89,2.23-1.23,3.41-.5,2.35-.8,3.53-.59,2.32-.87,3.51"/>
      <path class="cls-1" d="m128.46,133.73c-1.08-.53-2.19-.99-3.29-1.43s-2.29-.72-3.41-1.07c-1.16-.36-2.25-.9-3.39-1.18s-2.4-.34-3.54-.54c-1.21-.21-2.37-.54-3.52-.67-1.24-.14-2.44-.24-3.57-.31-1.28-.08-2.48.02-3.58,0-1.35-.01-2.56-.11-3.58-.07-2.23.1-2.58-1.12-3.48.42s.23,1.35,1.18,3.44c.43.96,1.25,1.95,1.9,3.18.54,1.01.99,2.17,1.68,3.29.62,1,1.23,2.09,1.98,3.13.7.97,1.54,1.89,2.35,2.86s1.66,1.79,2.55,2.68c.86.86,1.81,1.64,2.77,2.44s1.84,1.64,2.88,2.32,2.12,1.24,3.24,1.79,2.32.86,3.47,1.26,2.3.98,3.48,1.25,2.45.47,3.65.63,2.48.33,3.69.38,2.51-.04,3.7-.08c1.28-.04,2.51-.24,3.68-.37,1.31-.14,2.55-.21,3.68-.4,1.37-.23,2.59-.5,3.62-.74,2.23-.53,2.96.74,3.62-.99s-.66-1.36-1.98-3.37c-.6-.91-1.42-1.93-2.31-3.08-.72-.94-1.5-1.97-2.4-3-.8-.92-1.79-1.75-2.75-2.69-.88-.87-1.77-1.8-2.77-2.66-.95-.81-1.86-1.74-2.93-2.51s-2.19-1.29-3.32-1.97c-1.08-.65-2.15-1.37-3.32-1.95Z"/>
      <path class="cls-1" d="m70.97,183.18c-1-.77-2-1.51-3.05-2.14-1.09-.65-2.18-1.26-3.29-1.77s-2.36-.89-3.5-1.3c-1.22-.43-2.37-.93-3.53-1.24-1.28-.34-2.53-.5-3.67-.72-1.38-.26-2.61-.56-3.67-.68-2.28-.26-2.43-1.56-3.66-.16-1.29,1.47.08,1.46.51,3.81.2,1.11.44,2.41.82,3.81.32,1.18.62,2.47,1.1,3.75.44,1.18,1.1,2.33,1.69,3.53s1.18,2.29,1.92,3.4,1.42,2.18,2.31,3.16,1.89,1.77,2.94,2.58,2.1,1.6,3.24,2.19,2.41,1.07,3.63,1.49,2.54.68,3.8.93c1.32.27,2.61.5,3.86.61,1.37.13,2.69.11,3.91.11,1.46,0,2.77-.09,3.9-.18,2.37-.2,2.65,1.1,3.81-.47,1.06-1.44-.13-1.33-.86-3.41-.34-.97-.97-2.01-1.52-3.24-.45-1.01-.95-2.09-1.57-3.21-.55-1-1.1-2.06-1.79-3.09-.65-.96-1.37-1.91-2.16-2.85s-1.59-1.73-2.47-2.58c-.84-.81-1.74-1.58-2.71-2.32Z"/>
    </g>
  </g>
</svg>