<?xml version="1.0" encoding="UTF-8"?>
<svg id="_レイヤー_2" data-name="レイヤー 2" xmlns="http://www.w3.org/2000/svg" viewBox="0 0 101 69.18">
  <defs>
    <style>
      .cls-1 {
        fill: none;
        stroke: #d99a96;
        stroke-linecap: round;
        stroke-linejoin: round;
      }
    </style>
  </defs>
  <g id="about">
    <g>
      <path class="cls-1" d="m50.5,63.4c-16.25-5.28-33.75-5.28-50,0V6.13c0-.92.72-1.91,1.63-2.18C17.92-.81,34.79-.64,50.5,4.46v58.94Z"/>
      <path class="cls-1" d="m50.5,63.4c16.25-5.28,33.75-5.28,50,0V6.09c0-.9-.71-1.86-1.59-2.13-15.79-4.77-32.69-4.61-48.41.5v58.94Z"/>
      <path class="cls-1" d="m93.63,34.88c-12.19-3.96-25.31-3.96-37.5,0V9.67c12.19-3.96,25.31-3.96,37.5,0v25.21Z"/>
      <path class="cls-1" d="m43.63,56.58c-12.19-3.96-25.31-3.96-37.5,0v-20.24c12.19-3.96,25.31-3.96,37.5,0v20.24Z"/>
      <path class="cls-1" d="m50.5,66.44c-15.28-3.96-31.66-3.25-47.06,2.12-.99.34-1.87-.07-2.07-.99-.29-1.34-.58-2.67-.87-4.01,16.25-5.28,33.75-5.28,50,0v2.87Z"/>
      <path class="cls-1" d="m50.5,66.44c15.28-3.96,31.66-3.25,47.06,2.12.99.34,1.87-.07,2.07-.99.29-1.34.58-2.67.87-4.01-16.25-5.28-33.75-5.28-50,0,0,0,0,2.87,0,2.87Z"/>
      <g>
        <path class="cls-1" d="m70.14,39.34c-1.58.12-3.15.3-4.72.54-1.57.24-3.13.54-4.68.9-1.55.36-3.09.78-4.61,1.25v13.42c1.52-.48,3.07-.9,4.61-1.25s3.11-.66,4.68-.9c1.57-.24,3.14-.42,4.72-.54s3.16-.18,4.74-.18v-13.42c-1.58,0-3.16.06-4.74.18Z"/>
        <path class="cls-1" d="m89.1,40.9c-1.52-.35-3.05-.64-4.59-.88-1.54-.23-3.08-.41-4.63-.53v13.17c1.55.12,3.09.29,4.63.53,1.54.23,3.07.53,4.59.88,1.52.35,3.03.77,4.53,1.23v-13.17c-1.5-.47-3.01-.88-4.53-1.23Z"/>
      </g>
      <g>
        <path class="cls-1" d="m15.5,7.77c-1.58.24-3.16.54-4.72.91-1.56.36-3.12.79-4.66,1.27v20.27c1.56-.49,3.15-.92,4.73-1.29,1.59-.37,3.19-.67,4.8-.92,1.61-.24,3.22-.43,4.84-.55V7.22c-1.67.13-3.34.32-5,.57v-.02Z"/>
        <path class="cls-1" d="m39.01,8.68c-1.55-.36-3.11-.66-4.68-.9-1.57-.24-3.14-.42-4.72-.54-1.58-.12-3.16-.18-4.74-.18v20.22c1.58,0,3.16.06,4.74.18,1.58.12,3.15.3,4.72.54s3.13.54,4.68.9c1.55.36,3.09.78,4.61,1.25V9.94c-1.52-.48-3.07-.9-4.61-1.25Z"/>
      </g>
    </g>
  </g>
</svg>