<?xml version="1.0" encoding="UTF-8"?>
<svg id="_レイヤー_2" data-name="レイヤー 2" xmlns="http://www.w3.org/2000/svg" viewBox="0 0 229.78 195">
  <defs>
    <style>
      .cls-1 {
        fill: #ebd5d3;
        fill-rule: evenodd;
        stroke-width: 0px;
      }

      .cls-2 {
        fill: none;
        stroke: #fff;
        stroke-linecap: round;
        stroke-linejoin: round;
        stroke-width: 2px;
      }
    </style>
  </defs>
  <g id="about">
    <g>
      <path class="cls-1" d="m197.17,24.21c10.53,8.69,24.47,24.92,27.97,36.78,8.96,30.43,5.32,63.86-14.13,90.86-19.45,27-55.61,42.47-94.11,43.1-22.11.36-43.93-1.23-63.31-9.89-18.16-8.11-31.61-20.44-40.07-35.81-5.44-9.89-10.52-19.89-11.77-30.67-1.88-16.16-2.96-32.57.65-48.53,3.61-15.96,12.33-31.61,27.38-42.28C52.99,11.31,88.27-.36,117.83,0c10.67.13,56.36,5.24,79.34,24.2Z"/>
      <g>
        <g>
          <path class="cls-2" d="m198.23,88.2l-56.55,35.65c-.1.06-.21.1-.32.13l-10.54,2.32c-.2.04-.35-.19-.22-.35l6.64-8.51c.07-.09.16-.17.25-.23l56.55-35.65c1.24-.78,2.88-.41,3.66.83l1.35,2.14c.78,1.24.41,2.88-.83,3.66h0Z"/>
          <line class="cls-2" x1="145.99" y1="111.71" x2="149.87" y2="117.87"/>
          <line class="cls-2" x1="137.2" y1="117.26" x2="141.07" y2="123.41"/>
        </g>
        <path class="cls-2" d="m166.73,112.04v22.7c0,4.53-3.67,8.2-8.2,8.2H50.73c-4.53,0-8.2-3.67-8.2-8.2V60.26c0-4.53,3.67-8.2,8.2-8.2h107.8c4.53,0,8.2,3.67,8.2,8.2v33.61"/>
        <path class="cls-2" d="m49.35,75.12c.99-1.48,2.9-3.85,6.06-5.45,4.09-2.08,11.19-3.36,15.15.61,4.16,4.17,2.18,11.47,1.82,12.72-1.43,4.9-3.96,5-9.09,12.72-4.39,6.61-5.69,11.28-6.06,12.72-1.1,4.31-2.08,8.11,0,11.51,2.72,4.45,8.58,4.82,9.09,4.85,5.82.28,10.04-3.97,12.72-6.66.75-.76,2.97-3.09,4.85-6.66,1.23-2.35,2.24-5.4,4.24-11.51.86-2.62,1.09-3.44,1.82-4.85.99-1.9,2.24-4.33,4.85-6.06.62-.41,4.32-3,8.48-1.82s5.18,2.95,6.06,4.85c.25.54,2.03,3.56,4.24,14.54,0,0,.24,1.19,2.42,7.88.26.8.53,1.59,1.21,2.42,1.96,2.38,5.17,2.42,5.45,2.42,2.57,0,4.33-1.38,4.85-1.82"/>
      </g>
    </g>
  </g>
</svg>