<?xml version="1.0" encoding="UTF-8"?>
<svg id="_レイヤー_2" data-name="レイヤー 2" xmlns="http://www.w3.org/2000/svg" viewBox="0 0 1044.83 190.32">
  <defs>
    <style>
      .cls-1 {
        opacity: .2;
      }

      .cls-2 {
        fill: #c1d4c4;
        stroke-width: 0px;
      }
    </style>
  </defs>
  <g id="about">
    <g class="cls-1">
      <path class="cls-2" d="m842.86,7.18c79.42,11.69,171.19,17.21,191.82,42.66,20.62,25.6,10.25,93.7-35.31,105.71-46.19,11.79-119.58,13.85-183.47,18.82-63.25,5.03-133,3-220,5-66.4,11.07-150.77,14.64-224.63,6.53-73.86-8.11-255.61,12.92-324.52-14.04C-22.15,144.9,5.94,76,4.33,57.33,2.72,38.67,81.72,19.66,161.91,15.37c80.19-4.29,155.39-2.69,217-4,62.24-1.1,111.56.91,190.58-5.03,79.03-5.94,193.96-11,273.37.84Z"/>
    </g>
  </g>
</svg>