<?xml version="1.0" encoding="UTF-8"?>
<svg id="_レイヤー_2" data-name="レイヤー 2" xmlns="http://www.w3.org/2000/svg" viewBox="0 0 229.78 195">
  <defs>
    <style>
      .cls-1 {
        stroke-miterlimit: 10;
      }

      .cls-1, .cls-2 {
        fill: none;
        stroke: #fff;
        stroke-width: 2px;
      }

      .cls-3 {
        fill: #ebd5d3;
        fill-rule: evenodd;
        stroke-width: 0px;
      }

      .cls-2 {
        stroke-linecap: round;
        stroke-linejoin: round;
      }
    </style>
  </defs>
  <g id="about">
    <g>
      <path class="cls-3" d="m197.17,24.21c10.53,8.69,24.47,24.92,27.97,36.78,8.96,30.43,5.32,63.86-14.13,90.86-19.45,27-55.61,42.47-94.11,43.1-22.11.36-43.93-1.23-63.31-9.89-18.16-8.11-31.61-20.44-40.07-35.81-5.44-9.89-10.52-19.89-11.77-30.67-1.88-16.16-2.96-32.57.65-48.53,3.61-15.96,12.33-31.61,27.38-42.28C52.99,11.31,88.27-.36,117.83,0c10.67.13,56.36,5.24,79.34,24.2Z"/>
      <g>
        <rect class="cls-2" x="41.84" y="128.02" width="142.69" height="12.41" rx="5.92" ry="5.92"/>
        <path class="cls-2" d="m55.25,53.57h116.47c2.96,0,5.36,2.4,5.36,5.36v69.09H49.9V58.92c0-2.96,2.4-5.36,5.36-5.36h0Z"/>
        <path class="cls-1" d="m93.34,128.02h40.32v3.21c0,1.65-1.34,3-3,3h-34.33c-1.65,0-3-1.34-3-3v-3.21h0Z"/>
        <line class="cls-2" x1="121.85" y1="70.59" x2="104.95" y2="109.88"/>
        <polyline class="cls-2" points="98.67 75.11 79.21 90.88 98.67 106.65"/>
        <polyline class="cls-2" points="127.6 75.11 147.07 90.88 127.6 106.65"/>
      </g>
    </g>
  </g>
</svg>