<?xml version="1.0" encoding="utf-8"?>
<!-- Generator: Adobe Illustrator 27.9.5, SVG Export Plug-In . SVG Version: 9.03 Build 54986)  -->
<svg version="1.1" id="_レイヤー_2" xmlns="http://www.w3.org/2000/svg" xmlns:xlink="http://www.w3.org/1999/xlink" x="0px"
	 y="0px" viewBox="0 0 1042.3 139.2" style="enable-background:new 0 0 1042.3 139.2;" xml:space="preserve">
<style type="text/css">
	.st0{opacity:0.2;}
	.st1{fill:#C1D4C4;}
</style>
<g id="about">
	<g class="st0">
		<path class="st1" d="M837.2,4.8c79.8,8.2,171.6,11.9,193.4,30.3c21.7,18.6,14.4,68.3-30.5,77.2c-45.6,8.8-167.8,7.3-231.3,11.2
			c-62.9,3.9-108.9-3.2-175.3,5.1c-65.8,8.3-144.9,13.9-218.9,8.3S119.8,147.4,49.8,128c-70-19.4-45-69.7-47.4-83.3
			C0,31.1,79.6,21.3,159.4,17.9s159.3-0.5,220.8-1.7c62.1-1.1,105.5-6.3,184.1-10.9C642.9,0.6,757.4-3.6,837.2,4.8L837.2,4.8z"/>
	</g>
</g>
</svg>
