<?xml version="1.0" encoding="UTF-8"?>
<svg id="_レイヤー_2" data-name="レイヤー 2" xmlns="http://www.w3.org/2000/svg" viewBox="0 0 76 84.58">
  <defs>
    <style>
      .cls-1 {
        fill: none;
        stroke: #d99a96;
        stroke-linecap: round;
        stroke-linejoin: round;
      }
    </style>
  </defs>
  <g id="about">
    <g>
      <path class="cls-1" d="m75.5,23.54c0-12.73-7.89-23.04-17.63-23.04s-17.63,10.32-17.63,23.04c0,9.88,4.76,18.3,11.44,21.58,1.2.59,1.96,1.81,1.96,3.15v32.28c0,1.95,1.58,3.53,3.53,3.53h1.41c1.95,0,3.53-1.58,3.53-3.53v-32.28c0-1.34.76-2.57,1.97-3.15,6.68-3.28,11.43-11.7,11.43-21.58h0Z"/>
      <path class="cls-1" d="m28.71,5.04v20.5c0,1.95-1.58,3.53-3.53,3.53h0c-1.95,0-3.53-1.58-3.53-3.53V5.04c0-1.95-1.58-3.53-3.53-3.53h0c-1.95,0-3.53,1.58-3.53,3.53v20.5c0,1.95-1.58,3.53-3.53,3.53h0c-1.95,0-3.53-1.58-3.53-3.53V5.04c0-1.95-1.58-3.53-3.53-3.53h0c-1.95,0-3.53,1.57-3.53,3.53v23.91c0,7.39,4.64,13.77,11.14,16.38,1.35.54,2.26,1.83,2.26,3.29v31.94c0,1.95,1.58,3.53,3.53,3.53h1.41c1.95,0,3.53-1.58,3.53-3.53v-31.94c0-1.46.91-2.74,2.26-3.29,6.5-2.61,11.14-8.99,11.14-16.38V5.04c0-1.95-1.58-3.53-3.53-3.53h0c-1.95,0-3.53,1.58-3.53,3.53Z"/>
    </g>
  </g>
</svg>