<?xml version="1.0" encoding="UTF-8"?>
<svg id="_レイヤー_2" data-name="レイヤー 2" xmlns="http://www.w3.org/2000/svg" viewBox="0 0 340.02 283.88">
  <defs>
    <style>
      .cls-1 {
        opacity: .2;
      }

      .cls-2 {
        fill: #c1d4c4;
        stroke-width: 0px;
      }
    </style>
  </defs>
  <g id="about">
    <g class="cls-1">
      <path class="cls-2" d="m310.97,11.99c16.88,13.41,34.12,44.13,27.66,79.45-.8,40.94,1.81,120.55-16.92,139.44-18.81,18.61-25.98,22.25-46.52,31.89-20.38,9.69-112.96,19.52-123.32,20.01-15.21,3.87-66.06-3.71-85.34-3.89-16.72-.16-39.06-.86-55.61-18.43C-5.19,237.22-.92,93.66,7.46,67.15c8.53-26.99,13.7-30.03,29-36,24.83-9.33,68.19-11.15,86.31-15.5,18.2-4.07,39.68-7.63,91.79-13.78,36.67-3.29,79.62-3.51,96.42,10.12Z"/>
    </g>
  </g>
</svg>