<?xml version="1.0" encoding="UTF-8"?>
<svg id="_レイヤー_2" data-name="レイヤー 2" xmlns="http://www.w3.org/2000/svg" viewBox="0 0 78.6 107.82">
  <defs>
    <style>
      .cls-1 {
        fill: none;
        stroke: #d99a96;
        stroke-linecap: round;
        stroke-linejoin: round;
      }
    </style>
  </defs>
  <g id="about">
    <g>
      <path class="cls-1" d="m30.97,68.81l2.24,1.37c.62.38.82,1.2.44,1.82l-20.4,33.26c-.62,1.02-1.67,1.71-2.84,1.9-8.12,1.31-11.94-6.12-8.8-11.23l19.43-31.68c.38-.62,1.2-.82,1.82-.44l2.24,1.37"/>
      <path class="cls-1" d="m74.63,36.19c-5.16,8.42-31.48,25.19-43.62,32.65l-5.65-3.46c1.14-14.21,4.16-45.27,9.33-53.68C41.46.66,55.88-2.81,66.92,3.96c11.03,6.77,14.49,21.19,7.72,32.23Z"/>
      <polyline class="cls-1" points="28.02 67 66.61 4.1 66.73 3.89"/>
      <path class="cls-1" d="m61.26,35.36c-6.39,10.42-23.5,25.74-31.56,32.67l-3.03-1.86c2.52-10.33,8.42-32.52,14.81-42.94C49.97,9.39,61.29.88,66.75,4.23c5.46,3.35,3,17.29-5.49,31.13Z"/>
      <circle class="cls-1" cx="8.11" cy="99.91" r="2.03"/>
    </g>
  </g>
</svg>